<svg width="34" height="21" viewBox="0 0 34 21" fill="none" xmlns="http://www.w3.org/2000/svg">
<path d="M6.96266 4.11563C12.5059 -1.32032 21.4934 -1.32032 27.0366 4.11563L27.7038 4.76986C27.9809 5.04165 27.9809 5.48233 27.7038 5.75412L25.4216 7.9921C25.283 8.128 25.0583 8.128 24.9198 7.9921L24.0017 7.09181C20.1346 3.29955 13.8647 3.29955 9.99759 7.09181L9.01442 8.05595C8.87584 8.19185 8.65115 8.19185 8.51257 8.05595L6.23041 5.81797C5.95325 5.54617 5.95325 5.1055 6.23041 4.8337L6.96266 4.11563ZM31.7563 8.744L33.7875 10.7358C34.0646 11.0076 34.0646 11.4483 33.7875 11.7201L24.629 20.7014C24.3518 20.9732 23.9025 20.9732 23.6253 20.7014C23.6253 20.7014 23.6253 20.7014 23.6253 20.7014L17.1251 14.3271C17.0559 14.2591 16.9435 14.2591 16.8742 14.3271C16.8742 14.3271 16.8742 14.3271 16.8742 14.3271L10.3742 20.7014C10.0971 20.9732 9.64769 20.9732 9.37053 20.7014C9.37052 20.7014 9.37052 20.7014 9.37052 20.7014L0.211779 11.72C-0.0653846 11.4482 -0.0653846 11.0075 0.211779 10.7357L2.24291 8.74389C2.52007 8.47209 2.96944 8.47209 3.24661 8.74389L9.74684 15.1183C9.81613 15.1862 9.92847 15.1862 9.99776 15.1183C9.99776 15.1183 9.99776 15.1183 9.99777 15.1183L16.4977 8.74389C16.7748 8.47208 17.2242 8.47207 17.5014 8.74387C17.5014 8.74387 17.5014 8.74387 17.5014 8.74388L24.0016 15.1183C24.0709 15.1862 24.1832 15.1862 24.2525 15.1183L30.7526 8.744C31.0298 8.47221 31.4792 8.47221 31.7563 8.744Z" fill="#3B99FC"/>
</svg>
