<svg width="168" height="242" viewBox="0 0 168 242" fill="none" xmlns="http://www.w3.org/2000/svg">
<g opacity="0.1" clip-path="url(#clip0_160_2564)">
<path d="M139.404 81.4356L84.0044 80.5814L77.4277 115.507L84.0038 150.432L156.341 228.92C195.216 228.919 235.252 222.378 235.252 222.378L139.404 81.4356Z" fill="#8D8EA5"/>
<path d="M84.0038 80.5814L112.143 108.508L139.403 81.4356L84.0038 0L77.4277 40.2904L84.0038 80.5814Z" fill="white"/>
<path d="M28.5981 81.4356L83.9977 80.5814V150.433L11.6615 228.92L-67.25 222.378L28.5981 81.4356Z" fill="#D0D1E4"/>
<path d="M84.011 80.5814L55.8715 108.508L28.6113 81.4356L84.011 0V80.5814Z" fill="#E2E2E2"/>
<path d="M156.34 222.379L84.0038 228.919L77.4277 186.406L84.0038 150.433C123.953 150.433 156.34 182.645 156.34 222.379Z" fill="#2F3163"/>
<path d="M83.9905 150.433V228.919L11.6543 222.379C11.6543 182.645 44.0412 150.433 83.9905 150.433Z" fill="#5A5C8B"/>
<path d="M84.0038 222.378L77.4277 232.189L84.0038 242H235.252V222.378H84.0038Z" fill="#3C261B"/>
<path d="M83.9984 222.378H-67.25V242H83.9984V222.378Z" fill="#5E4335"/>
</g>
<defs>
<clipPath id="clip0_160_2564">
<rect width="242" height="242" fill="white" transform="translate(-37)"/>
</clipPath>
</defs>
</svg>
