<svg width="379" height="79" viewBox="0 0 379 79" fill="none" xmlns="http://www.w3.org/2000/svg">
<path d="M143.084 16.1484C139.958 16.1484 138.015 18.1177 138.015 21.4384V46.0595H137.875L116.702 18.8619C115.175 16.9628 113.44 16.1484 110.803 16.1484C107.472 16.1484 104.971 18.5916 104.971 22.323V57.1134C104.971 60.4341 106.915 62.4034 110.037 62.4034C113.231 62.4034 115.107 60.4341 115.107 57.1134V32.4256H115.247L136.279 59.4196C137.946 61.5223 140.095 62.4034 142.455 62.4034C145.858 62.4034 148.146 59.9602 148.146 56.2288V21.4384C148.15 18.1177 146.278 16.1484 143.084 16.1484Z" fill="#B33EFF"/>
<path d="M204.726 16.5557H161.616C158.145 16.5557 156.062 18.5916 156.062 21.9826V57.0467C156.062 60.3709 158.005 62.4069 161.271 62.4069C164.465 62.4069 166.409 60.3709 166.409 57.0467V44.7046H185.081C188.207 44.7046 190.15 43.0091 190.15 40.1588C190.15 37.2452 188.207 35.4796 185.081 35.4796H166.409V25.7807H204.726C207.849 25.7807 209.724 24.0185 209.724 21.1682C209.724 18.3178 207.849 16.5557 204.726 16.5557Z" fill="#B33EFF"/>
<path d="M236.034 16.5557H201.119C197.993 16.5557 196.121 18.3178 196.121 21.1682C196.121 24.015 197.993 25.7807 201.119 25.7807H213.403V56.98C213.403 60.3709 215.347 62.4069 218.612 62.4069C221.806 62.4069 223.75 60.3709 223.75 56.98V25.7807H236.034C239.156 25.7807 241.032 24.0185 241.032 21.1682C241.032 18.3178 239.156 16.5557 236.034 16.5557Z" fill="#B33EFF"/>
<path d="M313.255 46.9997C312.985 45.0691 310.772 44.0441 309.048 45.0199L308.58 45.2832C307.618 45.8273 307.057 46.8734 307.186 47.951C307.233 48.3477 307.258 48.7584 307.258 49.1796C307.258 53.9536 304.075 57.2252 299.3 57.2252C294.579 57.2252 291.342 53.9536 291.342 49.1796C291.342 44.353 294.579 41.0814 299.3 41.0814C300.701 41.0814 301.963 41.3622 303.051 41.8817C303.888 42.2819 304.866 42.2819 305.674 41.8291L305.796 41.7589C307.819 40.618 307.625 37.708 305.466 36.8199C303.644 36.0687 301.564 35.665 299.3 35.665C292.618 35.665 287.634 39.1332 285.881 44.6022C285.709 45.1287 285.572 45.6764 285.464 46.238C285.288 47.1717 285.195 48.1511 285.195 49.1796C285.195 57.169 290.904 62.6415 299.3 62.6415C307.643 62.6415 313.406 57.1725 313.406 49.1796C313.402 48.4284 313.352 47.7018 313.255 46.9997Z" fill="#B33EFF"/>
<path d="M332.998 35.8262C329.211 35.8262 326.412 37.3286 324.763 40.1157H324.651V39.1504C324.651 37.2198 323.552 35.9876 321.633 35.9876C319.769 35.9876 318.615 37.2198 318.615 39.1504V59.152C318.615 61.1353 319.769 62.3147 321.633 62.3147C323.556 62.3147 324.651 61.1353 324.651 59.152V50.7308C324.651 44.4579 327.727 41.7199 332.994 41.7199C334.805 41.7199 336.012 40.5931 336.012 38.7713C336.019 36.953 334.812 35.8262 332.998 35.8262Z" fill="#B33EFF"/>
<path d="M342.659 24.1338C340.794 24.1338 339.641 25.3132 339.641 27.2965V59.1523C339.641 61.1356 340.794 62.3151 342.659 62.3151C344.581 62.3151 345.677 61.1356 345.677 59.1523V27.2965C345.677 25.3168 344.581 24.1338 342.659 24.1338Z" fill="#B33EFF"/>
<path d="M375.921 24.1338C374.11 24.1338 372.957 25.3659 372.957 27.2965V39.4175H372.845C370.815 37.006 367.686 35.665 363.734 35.665C362.868 35.665 362.035 35.7317 361.237 35.8616C358.553 36.3004 357.892 39.7651 360.249 41.0919C360.942 41.4816 361.769 41.6115 362.541 41.3973C363.285 41.1902 364.093 41.0814 364.945 41.0814C369.666 41.0814 372.957 44.4056 372.957 49.1796C372.957 53.8974 369.662 57.2252 364.945 57.2252C360.278 57.2252 357.041 53.9536 357.041 49.1796C357.041 48.3863 357.13 47.6316 357.296 46.9295C357.601 45.6553 356.972 44.3389 355.815 43.686C353.994 42.6575 351.651 43.6615 351.235 45.6764C351.008 46.7751 350.893 47.944 350.893 49.1796C350.893 57.2778 355.999 62.6415 363.738 62.6415C367.69 62.6415 370.819 61.3006 372.849 58.889H372.96V59.1558C372.96 61.1391 374.114 62.3186 375.924 62.3186C377.843 62.3186 379 61.1391 379 59.1558V27.3001C378.996 25.3694 377.839 24.1338 375.921 24.1338Z" fill="#B33EFF"/>
<path d="M275.721 46.2369C275.117 46.2369 274.55 46.4195 274.079 46.7424C273.608 47.0618 273.235 47.5217 273.03 48.0728L271.248 52.8222H271.136L265.043 38.0755C264.493 36.6819 263.505 35.9834 262.19 35.9834C260.929 35.9834 259.995 36.6819 259.445 38.0755L253.409 52.8784H253.298L247.643 38.1317C247.071 36.6539 246.051 36.0501 244.779 35.9904C243.08 35.9132 241.621 37.2366 241.607 38.8969C241.6 39.4516 241.711 39.8868 241.991 40.5468L249.949 60.0674C250.553 61.5698 251.595 62.321 253.079 62.321C254.451 62.321 255.547 61.5698 256.154 60.0674L262.082 45.8578H262.194L268.122 60.0674C268.726 61.5698 269.825 62.321 271.251 62.321C272.678 62.321 273.72 61.5698 274.327 60.0674L278.387 50.0702C279.127 48.2308 277.744 46.2369 275.721 46.2369Z" fill="#B33EFF"/>
<path d="M279.687 41.8284C281.338 41.8284 282.676 40.5208 282.676 38.9078C282.676 37.2949 281.338 35.9873 279.687 35.9873C278.036 35.9873 276.698 37.2949 276.698 38.9078C276.698 40.5208 278.036 41.8284 279.687 41.8284Z" fill="url(#paint0_linear_3478_267636)"/>
<path opacity="0.8" d="M83.1704 52.4642L55.2146 42.5195L54.417 45.3067L79.7824 60.6537L83.1704 52.4642Z" fill="url(#paint1_linear_3478_267636)"/>
<path opacity="0.8" d="M78.435 1.69922L63.187 19.4858L66.823 22.0132L84.6685 8.07388L78.435 1.69922Z" fill="url(#paint2_linear_3478_267636)"/>
<path opacity="0.8" d="M79.811 18.1162L57.7654 31.364L59.4181 34.4952L83.7667 26.1231L79.811 18.1162Z" fill="url(#paint3_linear_3478_267636)"/>
<path opacity="0.8" d="M81.2517 35.0039L65.199 37.1136V41.712L81.2517 43.7831V35.0039Z" fill="url(#paint4_linear_3478_267636)"/>
<path opacity="0.8" d="M84.6795 70.7251L66.4567 56.1855L63.5789 59.7239L78.7011 77.3877L84.6795 70.7251Z" fill="url(#paint5_linear_3478_267636)"/>
<path d="M82.0171 8.90205C84.5332 8.90205 86.5728 6.90926 86.5728 4.45102C86.5728 1.99279 84.5332 0 82.0171 0C79.5011 0 77.4614 1.99279 77.4614 4.45102C77.4614 6.90926 79.5011 8.90205 82.0171 8.90205Z" fill="#FF4800"/>
<path d="M82.0171 26.4646C84.5332 26.4646 86.5728 24.4718 86.5728 22.0135C86.5728 19.5553 84.5332 17.5625 82.0171 17.5625C79.5011 17.5625 77.4614 19.5553 77.4614 22.0135C77.4614 24.4718 79.5011 26.4646 82.0171 26.4646Z" fill="#FF007A"/>
<path d="M82.0171 43.8435C84.5332 43.8435 86.5728 41.8507 86.5728 39.3924C86.5728 36.9342 84.5332 34.9414 82.0171 34.9414C79.5011 34.9414 77.4614 36.9342 77.4614 39.3924C77.4614 41.8507 79.5011 43.8435 82.0171 43.8435Z" fill="#0051F4"/>
<path d="M82.0171 61.2234C84.5332 61.2234 86.5728 59.2306 86.5728 56.7723C86.5728 54.3141 84.5332 52.3213 82.0171 52.3213C79.5011 52.3213 77.4614 54.3141 77.4614 56.7723C77.4614 59.2306 79.5011 61.2234 82.0171 61.2234Z" fill="#00BDFF"/>
<path d="M82.0171 78.7849C84.5332 78.7849 86.5728 76.7921 86.5728 74.3338C86.5728 71.8756 84.5332 69.8828 82.0171 69.8828C79.5011 69.8828 77.4614 71.8756 77.4614 74.3338C77.4614 76.7921 79.5011 78.7849 82.0171 78.7849Z" fill="#B33EFF"/>
<path opacity="0.8" d="M3.40259 52.4642L31.3584 42.5195L32.156 45.3067L6.79063 60.6537L3.40259 52.4642Z" fill="url(#paint6_linear_3478_267636)"/>
<path opacity="0.8" d="M8.13401 1.69922L23.3856 19.4858L19.7496 22.0132L1.90405 8.07388L8.13401 1.69922Z" fill="url(#paint7_linear_3478_267636)"/>
<path opacity="0.8" d="M6.76161 18.1162L28.8036 31.364L27.1545 34.4952L2.80591 26.1231L6.76161 18.1162Z" fill="url(#paint8_linear_3478_267636)"/>
<path opacity="0.8" d="M5.32104 35.0039L21.3738 37.1136V41.712L5.32104 43.7831V35.0039Z" fill="url(#paint9_linear_3478_267636)"/>
<path opacity="0.8" d="M1.89355 70.7251L20.1164 56.1855L22.9942 59.7239L7.87201 77.3877L1.89355 70.7251Z" fill="url(#paint10_linear_3478_267636)"/>
<path d="M4.55571 8.90205C7.07175 8.90205 9.11141 6.90926 9.11141 4.45102C9.11141 1.99279 7.07175 0 4.55571 0C2.03966 0 0 1.99279 0 4.45102C0 6.90926 2.03966 8.90205 4.55571 8.90205Z" fill="#FF4800"/>
<path d="M4.55571 26.4646C7.07175 26.4646 9.11141 24.4718 9.11141 22.0135C9.11141 19.5553 7.07175 17.5625 4.55571 17.5625C2.03966 17.5625 0 19.5553 0 22.0135C0 24.4718 2.03966 26.4646 4.55571 26.4646Z" fill="#FF007A"/>
<path d="M4.55571 43.8435C7.07175 43.8435 9.11141 41.8507 9.11141 39.3924C9.11141 36.9342 7.07175 34.9414 4.55571 34.9414C2.03966 34.9414 0 36.9342 0 39.3924C0 41.8507 2.03966 43.8435 4.55571 43.8435Z" fill="#0051F4"/>
<path d="M4.55571 61.2234C7.07175 61.2234 9.11141 59.2306 9.11141 56.7723C9.11141 54.3141 7.07175 52.3213 4.55571 52.3213C2.03966 52.3213 0 54.3141 0 56.7723C0 59.2306 2.03966 61.2234 4.55571 61.2234Z" fill="#00BDFF"/>
<path d="M4.55571 78.7849C7.07175 78.7849 9.11141 76.7921 9.11141 74.3338C9.11141 71.8756 7.07175 69.8828 4.55571 69.8828C2.03966 69.8828 0 71.8756 0 74.3338C0 76.7921 2.03966 78.7849 4.55571 78.7849Z" fill="#B33EFF"/>
<path opacity="0.8" d="M43.2865 5.61328H38.8997L40.5056 19.0647H43.2865H46.0673L47.6769 5.61328H43.2865Z" fill="url(#paint11_linear_3478_267636)"/>
<path opacity="0.8" d="M43.2865 23.207H38.8997L42.2733 36.6584H43.2865H44.2997L47.6733 23.207H43.2865Z" fill="url(#paint12_linear_3478_267636)"/>
<path d="M43.2864 8.90205C45.8025 8.90205 47.8421 6.90926 47.8421 4.45102C47.8421 1.99279 45.8025 0 43.2864 0C40.7704 0 38.7307 1.99279 38.7307 4.45102C38.7307 6.90926 40.7704 8.90205 43.2864 8.90205Z" fill="#FF007A"/>
<path d="M43.2864 26.4646C45.8025 26.4646 47.8421 24.4718 47.8421 22.0135C47.8421 19.5553 45.8025 17.5625 43.2864 17.5625C40.7704 17.5625 38.7307 19.5553 38.7307 22.0135C38.7307 24.4718 40.7704 26.4646 43.2864 26.4646Z" fill="#00BDFF"/>
<path opacity="0.8" d="M43.2862 73.1715H47.673L46.067 59.7236H43.2862H40.5053L38.8958 73.1715H43.2862Z" fill="url(#paint13_linear_3478_267636)"/>
<path opacity="0.8" d="M43.2862 55.5787H47.6731L44.2994 42.1309H43.2862H42.2731L38.8994 55.5787H43.2862Z" fill="url(#paint14_linear_3478_267636)"/>
<path d="M43.2862 78.7849C45.8022 78.7849 47.8419 76.7921 47.8419 74.3338C47.8419 71.8756 45.8022 69.8828 43.2862 69.8828C40.7701 69.8828 38.7305 71.8756 38.7305 74.3338C38.7305 76.7921 40.7701 78.7849 43.2862 78.7849Z" fill="#FF0025"/>
<path d="M43.2862 61.2234C45.8022 61.2234 47.8419 59.2306 47.8419 56.7723C47.8419 54.3141 45.8022 52.3213 43.2862 52.3213C40.7701 52.3213 38.7305 54.3141 38.7305 56.7723C38.7305 59.2306 40.7701 61.2234 43.2862 61.2234Z" fill="#B33EFF"/>
<path d="M43.2864 43.8435C45.8025 43.8435 47.8421 41.8507 47.8421 39.3924C47.8421 36.9342 45.8025 34.9414 43.2864 34.9414C40.7704 34.9414 38.7307 36.9342 38.7307 39.3924C38.7307 41.8507 40.7704 43.8435 43.2864 43.8435Z" fill="#FF4800"/>
<path opacity="0.8" d="M59.5619 3.00098L51.3523 24.6805L54.6649 25.9582L67.9116 6.50774L59.5619 3.00098Z" fill="url(#paint15_linear_3478_267636)"/>
<path d="M63.8699 8.90205C66.386 8.90205 68.4256 6.90926 68.4256 4.45102C68.4256 1.99279 66.386 0 63.8699 0C61.3539 0 59.3142 1.99279 59.3142 4.45102C59.3142 6.90926 61.3539 8.90205 63.8699 8.90205Z" fill="#B33EFF"/>
<path opacity="0.8" d="M60.2339 19.3301L50.2314 32.641L52.574 34.4945L65.9824 25.9575L60.2339 19.3301Z" fill="url(#paint16_linear_3478_267636)"/>
<path d="M63.8699 26.4646C66.386 26.4646 68.4256 24.4718 68.4256 22.0135C68.4256 19.5553 66.386 17.5625 63.8699 17.5625C61.3539 17.5625 59.3142 19.5553 59.3142 22.0135C59.3142 24.4718 61.3539 26.4646 63.8699 26.4646Z" fill="#0051F4"/>
<path opacity="0.8" d="M62.4397 35.166L50.4001 38.4762V40.3928L61.7607 43.3415L62.4397 35.166Z" fill="url(#paint17_linear_3478_267636)"/>
<path opacity="0.8" d="M65.095 52.4861L51.3525 43.3418L49.8291 44.5634L60.004 59.131L65.095 52.4861Z" fill="url(#paint18_linear_3478_267636)"/>
<path opacity="0.8" d="M66.7189 70.8623L52.3117 48.8564L50.2314 50.7169L59.4542 75.4397L66.7189 70.8623Z" fill="url(#paint19_linear_3478_267636)"/>
<path d="M63.8699 43.8435C66.386 43.8435 68.4256 41.8507 68.4256 39.3924C68.4256 36.9342 66.386 34.9414 63.8699 34.9414C61.3539 34.9414 59.3142 36.9342 59.3142 39.3924C59.3142 41.8507 61.3539 43.8435 63.8699 43.8435Z" fill="#FF0025"/>
<path d="M63.8699 61.2234C66.386 61.2234 68.4256 59.2306 68.4256 56.7723C68.4256 54.3141 66.386 52.3213 63.8699 52.3213C61.3539 52.3213 59.3142 54.3141 59.3142 56.7723C59.3142 59.2306 61.3539 61.2234 63.8699 61.2234Z" fill="#FF007A"/>
<path d="M63.8699 78.7849C66.386 78.7849 68.4256 76.7921 68.4256 74.3338C68.4256 71.8756 66.386 69.8828 63.8699 69.8828C61.3539 69.8828 59.3142 71.8756 59.3142 74.3338C59.3142 76.7921 61.3539 78.7849 63.8699 78.7849Z" fill="#00BDFF"/>
<path opacity="0.8" d="M27.0108 3.00098L35.2204 24.6805L31.9079 25.9582L18.6611 6.50774L27.0108 3.00098Z" fill="url(#paint20_linear_3478_267636)"/>
<path d="M22.7032 8.90205C25.2192 8.90205 27.2589 6.90926 27.2589 4.45102C27.2589 1.99279 25.2192 0 22.7032 0C20.1871 0 18.1475 1.99279 18.1475 4.45102C18.1475 6.90926 20.1871 8.90205 22.7032 8.90205Z" fill="#FF0025"/>
<path opacity="0.8" d="M26.3355 19.3281L36.3415 32.6426L33.999 34.496L20.5906 25.959L26.3355 19.3281Z" fill="url(#paint21_linear_3478_267636)"/>
<path d="M22.7032 26.4646C25.2192 26.4646 27.2589 24.4718 27.2589 22.0135C27.2589 19.5553 25.2192 17.5625 22.7032 17.5625C20.1871 17.5625 18.1475 19.5553 18.1475 22.0135C18.1475 24.4718 20.1871 26.4646 22.7032 26.4646Z" fill="#B33EFF"/>
<path opacity="0.8" d="M23.594 35.0186L36.1724 38.4762V40.3928L23.594 43.7592V35.0186Z" fill="url(#paint22_linear_3478_267636)"/>
<path opacity="0.8" d="M20.1665 53.0723L35.2204 43.3418L36.7438 44.5634L26.3569 59.4329L20.1665 53.0723Z" fill="url(#paint23_linear_3478_267636)"/>
<path opacity="0.8" d="M18.7295 72.1541L34.2613 48.8564L36.3415 50.7169L26.8852 76.1067L18.7295 72.1541Z" fill="url(#paint24_linear_3478_267636)"/>
<path d="M22.7032 43.8435C25.2192 43.8435 27.2589 41.8507 27.2589 39.3924C27.2589 36.9342 25.2192 34.9414 22.7032 34.9414C20.1871 34.9414 18.1475 36.9342 18.1475 39.3924C18.1475 41.8507 20.1871 43.8435 22.7032 43.8435Z" fill="#FF007A"/>
<path d="M22.7032 61.2234C25.2192 61.2234 27.2589 59.2306 27.2589 56.7723C27.2589 54.3141 25.2192 52.3213 22.7032 52.3213C20.1871 52.3213 18.1475 54.3141 18.1475 56.7723C18.1475 59.2306 20.1871 61.2234 22.7032 61.2234Z" fill="#0051F4"/>
<path d="M22.7032 78.7849C25.2192 78.7849 27.2589 76.7921 27.2589 74.3338C27.2589 71.8756 25.2192 69.8828 22.7032 69.8828C20.1871 69.8828 18.1475 71.8756 18.1475 74.3338C18.1475 76.7921 20.1871 78.7849 22.7032 78.7849Z" fill="#FF4800"/>
<defs>
<linearGradient id="paint0_linear_3478_267636" x1="273.418" y1="43.5949" x2="283.709" y2="35.5332" gradientUnits="userSpaceOnUse">
<stop stop-color="#0020DA"/>
<stop offset="0.2021" stop-color="#00BDFF"/>
<stop offset="0.418" stop-color="#B33EFF"/>
<stop offset="0.6189" stop-color="#FF007A"/>
<stop offset="0.8086" stop-color="#FF0025"/>
<stop offset="1" stop-color="#FF4800"/>
</linearGradient>
<linearGradient id="paint1_linear_3478_267636" x1="79.4567" y1="55.6417" x2="58.1866" y2="45.516" gradientUnits="userSpaceOnUse">
<stop offset="8.07343e-08" stop-color="#BC619C"/>
<stop offset="0.9992" stop-color="white" stop-opacity="0"/>
</linearGradient>
<linearGradient id="paint2_linear_3478_267636" x1="81.8835" y1="4.59109" x2="64.2482" y2="20.9882" gradientUnits="userSpaceOnUse">
<stop offset="8.07343e-08" stop-color="#BC619C"/>
<stop offset="0.9992" stop-color="white" stop-opacity="0"/>
</linearGradient>
<linearGradient id="paint3_linear_3478_267636" x1="80.5041" y1="22.7414" x2="63.5243" y2="31.338" gradientUnits="userSpaceOnUse">
<stop offset="8.07343e-08" stop-color="#BC619C"/>
<stop offset="0.9992" stop-color="white" stop-opacity="0"/>
</linearGradient>
<linearGradient id="paint4_linear_3478_267636" x1="82.1112" y1="39.393" x2="69.6294" y2="39.393" gradientUnits="userSpaceOnUse">
<stop offset="8.07343e-08" stop-color="#BC619C"/>
<stop offset="0.9992" stop-color="white" stop-opacity="0"/>
</linearGradient>
<linearGradient id="paint5_linear_3478_267636" x1="80.6155" y1="73.0059" x2="67.9039" y2="59.9955" gradientUnits="userSpaceOnUse">
<stop offset="8.07343e-08" stop-color="#BC619C"/>
<stop offset="0.9992" stop-color="white" stop-opacity="0"/>
</linearGradient>
<linearGradient id="paint6_linear_3478_267636" x1="7.11578" y1="55.6417" x2="28.3859" y2="45.516" gradientUnits="userSpaceOnUse">
<stop offset="8.07343e-08" stop-color="#BC619C"/>
<stop offset="0.9992" stop-color="white" stop-opacity="0"/>
</linearGradient>
<linearGradient id="paint7_linear_3478_267636" x1="4.68853" y1="4.59109" x2="22.3238" y2="20.9882" gradientUnits="userSpaceOnUse">
<stop offset="8.07343e-08" stop-color="#BC619C"/>
<stop offset="0.9992" stop-color="white" stop-opacity="0"/>
</linearGradient>
<linearGradient id="paint8_linear_3478_267636" x1="6.06798" y1="22.7414" x2="23.0477" y2="31.338" gradientUnits="userSpaceOnUse">
<stop offset="8.07343e-08" stop-color="#BC619C"/>
<stop offset="0.9992" stop-color="white" stop-opacity="0"/>
</linearGradient>
<linearGradient id="paint9_linear_3478_267636" x1="4.46103" y1="39.393" x2="16.9429" y2="39.393" gradientUnits="userSpaceOnUse">
<stop offset="8.07343e-08" stop-color="#BC619C"/>
<stop offset="0.9992" stop-color="white" stop-opacity="0"/>
</linearGradient>
<linearGradient id="paint10_linear_3478_267636" x1="5.95718" y1="73.0059" x2="18.6687" y2="59.9955" gradientUnits="userSpaceOnUse">
<stop offset="8.07343e-08" stop-color="#BC619C"/>
<stop offset="0.9992" stop-color="white" stop-opacity="0"/>
</linearGradient>
<linearGradient id="paint11_linear_3478_267636" x1="43.2867" y1="-2.56605" x2="43.2867" y2="21.1511" gradientUnits="userSpaceOnUse">
<stop offset="8.07343e-08" stop-color="#BC619C"/>
<stop offset="0.9992" stop-color="white" stop-opacity="0"/>
</linearGradient>
<linearGradient id="paint12_linear_3478_267636" x1="43.2857" y1="17.5626" x2="43.2857" y2="33.7479" gradientUnits="userSpaceOnUse">
<stop offset="8.07343e-08" stop-color="#BC619C"/>
<stop offset="0.9992" stop-color="white" stop-opacity="0"/>
</linearGradient>
<linearGradient id="paint13_linear_3478_267636" x1="43.2854" y1="81.5381" x2="43.2854" y2="57.821" gradientUnits="userSpaceOnUse">
<stop offset="8.07343e-08" stop-color="#BC619C"/>
<stop offset="0.9992" stop-color="white" stop-opacity="0"/>
</linearGradient>
<linearGradient id="paint14_linear_3478_267636" x1="43.2865" y1="61.2252" x2="43.2865" y2="45.04" gradientUnits="userSpaceOnUse">
<stop offset="8.07343e-08" stop-color="#BC619C"/>
<stop offset="0.9992" stop-color="white" stop-opacity="0"/>
</linearGradient>
<linearGradient id="paint15_linear_3478_267636" x1="63.0037" y1="6.19435" x2="54.5975" y2="23.5004" gradientUnits="userSpaceOnUse">
<stop offset="8.07343e-08" stop-color="#BC619C"/>
<stop offset="0.9992" stop-color="white" stop-opacity="0"/>
</linearGradient>
<linearGradient id="paint16_linear_3478_267636" x1="64.1424" y1="21.6401" x2="52.8469" y2="33.1256" gradientUnits="userSpaceOnUse">
<stop offset="8.07343e-08" stop-color="#BC619C"/>
<stop offset="0.9992" stop-color="white" stop-opacity="0"/>
</linearGradient>
<linearGradient id="paint17_linear_3478_267636" x1="61.9336" y1="39.255" x2="51.2654" y2="39.373" gradientUnits="userSpaceOnUse">
<stop offset="8.07343e-08" stop-color="#BC619C"/>
<stop offset="0.9992" stop-color="white" stop-opacity="0"/>
</linearGradient>
<linearGradient id="paint18_linear_3478_267636" x1="63.1389" y1="56.3498" x2="52.9946" y2="46.5777" gradientUnits="userSpaceOnUse">
<stop offset="8.07343e-08" stop-color="#BC619C"/>
<stop offset="0.9992" stop-color="white" stop-opacity="0"/>
</linearGradient>
<linearGradient id="paint19_linear_3478_267636" x1="62.0242" y1="71.1523" x2="53.6449" y2="54.6443" gradientUnits="userSpaceOnUse">
<stop offset="8.07343e-08" stop-color="#BC619C"/>
<stop offset="0.9992" stop-color="white" stop-opacity="0"/>
</linearGradient>
<linearGradient id="paint20_linear_3478_267636" x1="23.5685" y1="6.19435" x2="31.9748" y2="23.5004" gradientUnits="userSpaceOnUse">
<stop offset="8.07343e-08" stop-color="#BC619C"/>
<stop offset="0.9992" stop-color="white" stop-opacity="0"/>
</linearGradient>
<linearGradient id="paint21_linear_3478_267636" x1="22.4267" y1="21.6382" x2="33.7253" y2="33.1268" gradientUnits="userSpaceOnUse">
<stop offset="8.07343e-08" stop-color="#BC619C"/>
<stop offset="0.9992" stop-color="white" stop-opacity="0"/>
</linearGradient>
<linearGradient id="paint22_linear_3478_267636" x1="24.2145" y1="39.3958" x2="35.3082" y2="39.5186" gradientUnits="userSpaceOnUse">
<stop offset="8.07343e-08" stop-color="#BC619C"/>
<stop offset="0.9992" stop-color="white" stop-opacity="0"/>
</linearGradient>
<linearGradient id="paint23_linear_3478_267636" x1="22.9971" y1="56.4968" x2="33.3792" y2="46.4957" gradientUnits="userSpaceOnUse">
<stop offset="8.07343e-08" stop-color="#BC619C"/>
<stop offset="0.9992" stop-color="white" stop-opacity="0"/>
</linearGradient>
<linearGradient id="paint24_linear_3478_267636" x1="24.0577" y1="71.7777" x2="32.7062" y2="54.7395" gradientUnits="userSpaceOnUse">
<stop offset="8.07343e-08" stop-color="#BC619C"/>
<stop offset="0.9992" stop-color="white" stop-opacity="0"/>
</linearGradient>
</defs>
</svg>
