<svg width="32" height="30" viewBox="0 0 32 30" fill="none" xmlns="http://www.w3.org/2000/svg">
<path d="M29.547 0.88089L17.8652 9.54689L20.0375 4.43973L29.547 0.88089Z" fill="#E17726" stroke="#E17726" stroke-linecap="round" stroke-linejoin="round"/>
<path d="M2.60156 0.881165L14.1793 9.62804L12.111 4.44L2.60156 0.881165Z" fill="#E27625" stroke="#E27625" stroke-linecap="round" stroke-linejoin="round"/>
<path d="M25.3406 20.9746L22.2324 25.7352L28.8879 27.5724L30.7944 21.0786L25.3406 20.9746Z" fill="#E27625" stroke="#E27625" stroke-linecap="round" stroke-linejoin="round"/>
<path d="M1.36523 21.0786L3.2602 27.5724L9.90413 25.7352L6.80748 20.9746L1.36523 21.0786Z" fill="#E27625" stroke="#E27625" stroke-linecap="round" stroke-linejoin="round"/>
<path d="M9.54601 12.9329L7.69727 15.7291L14.2834 16.0295L14.0639 8.92343L9.54601 12.9329Z" fill="#E27625" stroke="#E27625" stroke-linecap="round" stroke-linejoin="round"/>
<path d="M22.6026 12.9326L18.0154 8.84229L17.8652 16.0293L24.4514 15.7289L22.6026 12.9326Z" fill="#E27625" stroke="#E27625" stroke-linecap="round" stroke-linejoin="round"/>
<path d="M9.9043 25.7354L13.8907 23.8058L10.4589 21.1251L9.9043 25.7354Z" fill="#E27625" stroke="#E27625" stroke-linecap="round" stroke-linejoin="round"/>
<path d="M18.2588 23.8058L22.2336 25.7354L21.6905 21.1251L18.2588 23.8058Z" fill="#E27625" stroke="#E27625" stroke-linecap="round" stroke-linejoin="round"/>
<path d="M22.2326 25.735L18.2578 23.8054L18.5813 26.3936L18.5467 27.4913L22.2326 25.735Z" fill="#D5BFB2" stroke="#D5BFB2" stroke-linecap="round" stroke-linejoin="round"/>
<path d="M9.9043 25.7352L13.6018 27.4915L13.5787 26.3938L13.8907 23.8056L9.9043 25.7352Z" fill="#D5BFB2" stroke="#D5BFB2" stroke-linecap="round" stroke-linejoin="round"/>
<path d="M13.6708 19.4147L10.3662 18.4442L12.7003 17.3696L13.6708 19.4147Z" fill="#233447" stroke="#233447" stroke-linecap="round" stroke-linejoin="round"/>
<path d="M18.4785 19.4147L19.4491 17.3696L21.7947 18.4442L18.4785 19.4147Z" fill="#233447" stroke="#233447" stroke-linecap="round" stroke-linejoin="round"/>
<path d="M9.90427 25.7353L10.482 20.9748L6.80762 21.0788L9.90427 25.7353Z" fill="#CC6228" stroke="#CC6228" stroke-linecap="round" stroke-linejoin="round"/>
<path d="M21.666 20.9748L22.2322 25.7353L25.3404 21.0788L21.666 20.9748Z" fill="#CC6228" stroke="#CC6228" stroke-linecap="round" stroke-linejoin="round"/>
<path d="M24.4524 15.7289L17.8662 16.0293L18.4786 19.4148L19.4492 17.3696L21.7948 18.4442L24.4524 15.7289Z" fill="#CC6228" stroke="#CC6228" stroke-linecap="round" stroke-linejoin="round"/>
<path d="M10.3654 18.4442L12.6995 17.3696L13.67 19.4148L14.2824 16.0293L7.69629 15.7289L10.3654 18.4442Z" fill="#CC6228" stroke="#CC6228" stroke-linecap="round" stroke-linejoin="round"/>
<path d="M7.69727 15.7289L10.4588 21.1249L10.3664 18.4442L7.69727 15.7289Z" fill="#E27525" stroke="#E27525" stroke-linecap="round" stroke-linejoin="round"/>
<path d="M21.7934 18.4443L21.6895 21.1249L24.451 15.7289L21.7934 18.4443Z" fill="#E27525" stroke="#E27525" stroke-linecap="round" stroke-linejoin="round"/>
<path d="M14.2833 16.0295L13.6709 19.415L14.4451 23.4129L14.6184 18.144L14.2833 16.0295Z" fill="#E27525" stroke="#E27525" stroke-linecap="round" stroke-linejoin="round"/>
<path d="M17.8645 16.0295L17.541 18.1325L17.7028 23.4129L18.4769 19.415L17.8645 16.0295Z" fill="#E27525" stroke="#E27525" stroke-linecap="round" stroke-linejoin="round"/>
<path d="M18.4773 19.4149L17.7031 23.4128L18.2577 23.8056L21.6895 21.125L21.7935 18.4443L18.4773 19.4149Z" fill="#F5841F" stroke="#F5841F" stroke-linecap="round" stroke-linejoin="round"/>
<path d="M10.3662 18.4443L10.4586 21.125L13.8904 23.8056L14.445 23.4128L13.6708 19.4149L10.3662 18.4443Z" fill="#F5841F" stroke="#F5841F" stroke-linecap="round" stroke-linejoin="round"/>
<path d="M18.5472 27.4915L18.5818 26.3938L18.2814 26.1396H13.8675L13.5787 26.3938L13.6018 27.4915L9.9043 25.7352L11.1984 26.7983L13.8213 28.6123H18.3161L20.9506 26.7983L22.2331 25.7352L18.5472 27.4915Z" fill="#C0AC9D" stroke="#C0AC9D" stroke-linecap="round" stroke-linejoin="round"/>
<path d="M18.2587 23.8054L17.7041 23.4126H14.4457L13.8911 23.8054L13.5791 26.3937L13.868 26.1395H18.2818L18.5823 26.3937L18.2587 23.8054Z" fill="#161616" stroke="#161616" stroke-linecap="round" stroke-linejoin="round"/>
<path d="M30.0436 10.1131L31.0257 5.32943L29.5467 0.88089L18.2578 9.25802L22.6024 12.9324L28.7379 14.7234L30.0898 13.1404L29.5005 12.7129L30.4364 11.8578L29.72 11.3032L30.656 10.5868L30.0436 10.1131Z" fill="#763E1A" stroke="#763E1A" stroke-linecap="round" stroke-linejoin="round"/>
<path d="M1.12207 5.32977L2.11577 10.1134L1.48026 10.5871L2.42775 11.3035L1.71136 11.8582L2.64729 12.7132L2.058 13.1407L3.40989 14.7237L9.54542 12.9327L13.89 9.25836L2.60107 0.881226L1.12207 5.32977Z" fill="#763E1A" stroke="#763E1A" stroke-linecap="round" stroke-linejoin="round"/>
<path d="M28.7388 14.7237L22.6032 12.9327L24.452 15.7289L21.6904 21.125L25.3417 21.0787H30.7955L28.7388 14.7237Z" fill="#F5841F" stroke="#F5841F" stroke-linecap="round" stroke-linejoin="round"/>
<path d="M9.54593 12.9327L3.41041 14.7237L1.36523 21.0787H6.80748L10.4588 21.125L7.69719 15.7289L9.54593 12.9327Z" fill="#F5841F" stroke="#F5841F" stroke-linecap="round" stroke-linejoin="round"/>
<path d="M17.8665 16.0293L18.2594 9.25827L20.0388 4.43997H12.1123L13.8917 9.25827L14.2846 16.0293L14.4348 18.1554L14.4463 23.4127H17.7048L17.7163 18.1554L17.8665 16.0293Z" fill="#F5841F" stroke="#F5841F" stroke-linecap="round" stroke-linejoin="round"/>
</svg>
