<svg width="90" height="90" viewBox="0 0 90 90" fill="none"
  xmlns="http://www.w3.org/2000/svg">
  <path d="M46 20C32.172 20 21 31.1591 21 45C21 58.8409 32.1591 70 46 70C59.8409 70 71 58.8409 71 45C71 31.1591 59.8282 20 46 20ZM46 66.6573C34.002 66.6573 24.3426 56.9979 24.3426 44.9999C24.3426 33.0019 34.0021 23.3425 46 23.3425C57.9979 23.3425 67.6574 33.0019 67.6574 44.9999C67.6574 56.9979 57.998 66.6573 46 66.6573Z" fill="url(#paint0_linear)"/>
  <path d="M57.998 37.6667C57.3371 37.0056 56.333 37.0056 55.6594 37.6666L42.8353 50.4908L36.3406 43.9962C35.6797 43.3353 34.6756 43.3353 34.002 43.9962C33.3411 44.657 33.3411 45.6611 34.002 46.3347L41.6659 53.9986C41.9964 54.3291 42.3267 54.4943 42.8352 54.4943C43.3309 54.4943 43.6741 54.3291 44.0045 53.9986L57.998 40.0053C58.6588 39.3444 58.6588 38.3405 57.998 37.6667Z" fill="url(#paint1_linear)"/>
  <circle opacity="0.2" cx="45" cy="45" r="45" fill="url(#paint2_linear)"/>
  <circle opacity="0.2" cx="45" cy="45" r="34" fill="url(#paint3_linear)"/>
  <defs>
    <linearGradient id="paint0_linear" x1="46" y1="-5" x2="-4" y2="45" gradientUnits="userSpaceOnUse">
      <stop stop-color="#FC6D4B"/>
      <stop offset="1" stop-color="#D74C78"/>
    </linearGradient>
    <linearGradient id="paint1_linear" x1="46" y1="28.5092" x2="29.7772" y2="51.9089" gradientUnits="userSpaceOnUse">
      <stop stop-color="#FC6D4B"/>
      <stop offset="1" stop-color="#D74C78"/>
    </linearGradient>
    <linearGradient id="paint2_linear" x1="45" y1="-45" x2="-45" y2="45" gradientUnits="userSpaceOnUse">
      <stop stop-color="#FC6D4B"/>
      <stop offset="1" stop-color="#D74C78"/>
    </linearGradient>
    <linearGradient id="paint3_linear" x1="45" y1="-23" x2="-23" y2="45" gradientUnits="userSpaceOnUse">
      <stop stop-color="#FC6D4B"/>
      <stop offset="1" stop-color="#D74C78"/>
    </linearGradient>
  </defs>
</svg>
