<svg width="113" height="45" viewBox="0 0 113 45" fill="none" xmlns="http://www.w3.org/2000/svg">
<mask id="path-1-inside-1_2954_267902" fill="white">
<path fill-rule="evenodd" clip-rule="evenodd" d="M5 0C2.23858 0 0 2.23858 0 5V31C0 33.7614 2.23858 36 5 36H50.4364L57 45L63.5636 36H108C110.761 36 113 33.7614 113 31V5C113 2.23858 110.761 0 108 0H5Z"/>
</mask>
<path fill-rule="evenodd" clip-rule="evenodd" d="M5 0C2.23858 0 0 2.23858 0 5V31C0 33.7614 2.23858 36 5 36H50.4364L57 45L63.5636 36H108C110.761 36 113 33.7614 113 31V5C113 2.23858 110.761 0 108 0H5Z" fill="#561212"/>
<path fill-rule="evenodd" clip-rule="evenodd" d="M5 0C2.23858 0 0 2.23858 0 5V31C0 33.7614 2.23858 36 5 36H50.4364L57 45L63.5636 36H108C110.761 36 113 33.7614 113 31V5C113 2.23858 110.761 0 108 0H5Z" fill="#FF0000" fill-opacity="0.2"/>
<path d="M50.4364 36L51.2444 35.4108L50.9448 35H50.4364V36ZM57 45L56.192 45.5892L57 46.6971L57.808 45.5892L57 45ZM63.5636 36V35H63.0552L62.7556 35.4108L63.5636 36ZM1 5C1 2.79086 2.79086 1 5 1V-1C1.68629 -1 -1 1.68629 -1 5H1ZM1 31V5H-1V31H1ZM5 35C2.79086 35 1 33.2091 1 31H-1C-1 34.3137 1.68629 37 5 37V35ZM50.4364 35H5V37H50.4364V35ZM49.6285 36.5892L56.192 45.5892L57.808 44.4108L51.2444 35.4108L49.6285 36.5892ZM57.808 45.5892L64.3715 36.5892L62.7556 35.4108L56.192 44.4108L57.808 45.5892ZM108 35H63.5636V37H108V35ZM112 31C112 33.2091 110.209 35 108 35V37C111.314 37 114 34.3137 114 31H112ZM112 5V31H114V5H112ZM108 1C110.209 1 112 2.79086 112 5H114C114 1.68629 111.314 -1 108 -1V1ZM5 1H108V-1H5V1Z" fill="#ED2857" mask="url(#path-1-inside-1_2954_267902)"/>
</svg>
