<?xml version="1.0" standalone="no"?>
<!DOCTYPE svg PUBLIC "-//W3C//DTD SVG 20010904//EN"
 "http://www.w3.org/TR/2001/REC-SVG-20010904/DTD/svg10.dtd">
<svg version="1.0" xmlns="http://www.w3.org/2000/svg"
 width="512.000000pt" height="512.000000pt" viewBox="0 0 512.000000 512.000000"
 preserveAspectRatio="xMidYMid meet">
<metadata>
Created by potrace 1.11, written by Peter Selinger 2001-2013
</metadata>
<g transform="translate(0.000000,512.000000) scale(0.100000,-0.100000)"
fill="#000000" stroke="none">
<path d="M12 5108 c-17 -17 -17 -5079 0 -5096 17 -17 5079 -17 5096 0 17 17
17 5079 0 5096 -17 17 -5079 17 -5096 0z m2797 -339 c552 -47 1092 -241 1582
-570 120 -80 184 -142 193 -188 9 -40 56 -571 56 -622 0 -81 3 -81 -235 32
-133 64 -223 113 -232 126 -9 13 -18 62 -22 112 -13 156 -44 188 -310 321
-278 139 -581 245 -851 297 -37 7 -73 13 -87 15 -7 1 -10 5 -7 9 2 4 0 10 -5
14 -6 3 -8 12 -4 20 4 11 1 13 -11 9 -11 -4 -16 -2 -14 7 2 8 -7 15 -21 17
-16 3 -21 0 -16 -9 5 -8 4 -10 -3 -5 -16 10 -15 18 4 42 8 10 13 14 10 7 -4
-6 -2 -14 3 -17 14 -9 7 22 -9 37 -10 10 -11 9 -5 -2 5 -9 4 -12 -3 -7 -6 4
-8 14 -5 24 6 14 4 15 -9 4 -13 -10 -18 -9 -29 5 -8 9 -9 14 -4 11 6 -3 18 5
28 17 l17 24 -27 -15 c-33 -16 -57 -18 -48 -4 4 6 11 8 16 5 5 -4 9 -1 9 4 0
6 -5 11 -11 11 -8 0 -8 5 1 15 13 15 35 11 25 -6 -4 -5 -4 -9 -1 -9 15 0 13
21 -6 41 -11 13 -19 17 -16 9 4 -14 -17 -44 -34 -46 -4 -1 -13 -2 -19 -3 -5 0
-8 -5 -5 -9 2 -4 1 -14 -5 -22 -6 -11 -9 -11 -10 -2 -1 6 -2 18 -3 25 -1 6 3
15 8 19 6 4 5 13 -4 22 -7 9 -10 19 -7 22 8 8 -16 33 -25 27 -16 -9 -8 15 9
28 14 12 16 12 9 -1 -4 -8 -1 -6 8 4 8 10 13 22 11 27 -3 4 0 10 5 12 6 3 5 4
-2 3 -7 -2 -12 -9 -10 -15 4 -19 -27 -12 -40 9 -12 19 -14 18 -44 -16 -25 -28
-33 -32 -38 -19 -3 9 -2 13 4 10 15 -10 12 15 -5 31 -12 13 -15 12 -24 -4 -6
-11 -7 -23 -3 -27 4 -5 1 -5 -6 -1 -7 4 -10 12 -7 17 4 5 1 9 -4 9 -6 0 -11 5
-11 11 0 5 5 7 10 4 6 -3 10 -1 10 6 0 7 10 9 25 7 14 -3 25 -1 25 3 0 5 -5 9
-11 9 -8 0 -7 6 2 17 8 9 9 14 2 10 -6 -4 -22 -3 -36 2 -14 6 -28 6 -33 1 -6
-6 -15 -1 -22 10 -7 12 -8 20 -2 20 5 0 10 -4 10 -8 0 -4 11 -8 25 -7 14 0 25
5 25 10 -1 6 -9 9 -18 8 -9 -2 -24 2 -32 7 -41 28 67 31 319 9z m-344 1 c3 -5
2 -10 -4 -10 -5 0 -13 5 -16 10 -3 6 -2 10 4 10 5 0 13 -4 16 -10z m79 -69 c4
-5 -3 -7 -14 -4 -23 6 -26 13 -6 13 8 0 17 -4 20 -9z m87 -90 c-12 -12 -21
-16 -21 -10 0 5 -6 7 -12 3 -9 -5 -9 -2 1 9 7 9 20 17 28 17 8 0 11 5 7 13 -5
9 -4 9 6 1 9 -10 8 -16 -9 -33z m-121 5 c0 -3 -4 -8 -10 -11 -5 -3 -10 -1 -10
4 0 6 5 11 10 11 6 0 10 -2 10 -4z m90 -72 c0 -8 -19 -13 -24 -6 -3 5 1 9 9 9
8 0 15 -2 15 -3z m135 -84 c3 -5 1 -10 -4 -10 -6 0 -11 5 -11 10 0 6 2 10 4
10 3 0 8 -4 11 -10z m15 -25 c-7 -8 -16 -15 -21 -15 -5 0 -1 8 9 18 20 22 31
19 12 -3z m54 -23 c3 -5 -1 -9 -9 -9 -8 0 -12 4 -9 9 3 4 7 8 9 8 2 0 6 -4 9
-8z m1461 -1182 c33 -12 64 -26 68 -30 4 -4 -29 -28 -75 -55 -46 -26 -86 -53
-90 -59 -4 -6 -8 -7 -8 -1 0 5 -5 4 -12 -3 -7 -7 -20 -12 -31 -12 -10 0 -16
-4 -13 -9 4 -5 -3 -7 -13 -4 -11 3 -22 12 -26 21 -5 14 -4 15 6 5 16 -16 29
-17 29 -2 0 5 -4 8 -9 5 -12 -8 -33 19 -23 29 4 5 1 5 -6 1 -7 -4 -10 -12 -7
-17 4 -5 2 -9 -4 -9 -5 0 -13 9 -16 20 -3 11 -11 20 -16 20 -5 0 -9 5 -9 11 0
8 5 8 15 -1 8 -7 21 -10 29 -7 8 3 20 -1 26 -9 7 -8 9 -14 4 -14 -4 0 1 -6 11
-14 11 -8 23 -12 27 -10 12 8 10 34 -3 34 -5 0 -7 -6 -3 -12 4 -7 -5 0 -20 15
-14 16 -24 34 -20 40 3 7 -2 3 -10 -7 -15 -19 -22 -12 -17 16 0 4 -5 5 -13 2
-8 -3 -17 -1 -21 5 -3 6 -11 11 -18 11 -6 0 -2 -7 9 -15 10 -8 14 -15 7 -15
-6 0 -13 -6 -16 -12 -2 -7 -3 -5 -2 5 2 9 -3 17 -12 17 -8 0 -11 5 -8 10 3 6
-2 10 -12 10 -15 0 -16 2 -3 10 8 5 12 10 8 10 -3 0 -14 3 -24 7 -10 4 -15 2
-11 -3 3 -6 -4 -11 -16 -11 -21 -2 -21 -1 -2 9 19 11 19 11 0 20 -16 7 -15 7
5 2 33 -8 61 -12 83 -13 11 -1 15 -6 11 -13 -4 -7 -3 -8 5 -4 6 4 8 13 4 19
-4 7 -8 18 -10 26 -3 22 177 9 252 -19z m-330 -79 c3 -5 2 -12 -3 -15 -5 -3
-9 1 -9 9 0 17 3 19 12 6z"/>
<path d="M2506 4768 c3 -5 10 -6 15 -3 13 9 11 12 -6 12 -8 0 -12 -4 -9 -9z"/>
<path d="M2567 4763 c-13 -12 -7 -23 12 -23 10 0 21 7 25 15 3 8 1 15 -4 15
-6 0 -10 -4 -10 -10 0 -5 -5 -10 -11 -10 -5 0 -7 5 -4 10 7 11 2 13 -8 3z"/>
<path d="M2590 4693 c0 -5 5 -15 10 -23 7 -12 9 -10 7 8 -1 19 -17 33 -17 15z"/>
<path d="M2728 4553 c7 -3 16 -2 19 1 4 3 -2 6 -13 5 -11 0 -14 -3 -6 -6z"/>
<path d="M2840 4499 c0 -5 5 -7 10 -4 6 3 10 8 10 11 0 2 -4 4 -10 4 -5 0 -10
-5 -10 -11z"/>
<path d="M2835 4451 c-3 -5 -2 -12 3 -15 5 -3 9 1 9 9 0 17 -3 19 -12 6z"/>
<path d="M2864 4389 c-3 -6 -1 -16 4 -21 8 -8 11 -5 9 11 -1 24 -3 25 -13 10z"/>
<path d="M2890 4375 c0 -3 10 -10 23 -15 18 -7 19 -9 3 -9 -12 -1 -16 -6 -12
-17 3 -9 6 -20 6 -25 0 -5 8 -9 18 -9 14 0 14 2 3 9 -18 12 -7 41 16 41 11 1
4 7 -16 15 -37 17 -41 17 -41 10z"/>
<path d="M2979 4333 c-13 -16 -12 -17 4 -4 16 13 21 21 13 21 -2 0 -10 -8 -17
-17z"/>
<path d="M4047 3204 c2 -7 11 -10 19 -7 19 7 18 10 -5 16 -13 3 -18 1 -14 -9z"/>
<path d="M4082 3191 c-11 -7 -11 -9 0 -14 9 -3 15 1 15 9 0 8 -1 14 -1 14 -1
0 -7 -4 -14 -9z"/>
</g>
</svg>
