<svg width="154" height="32" viewBox="0 0 154 32" fill="none" xmlns="http://www.w3.org/2000/svg">
<path d="M58.2996 6.63477C57.0402 6.63477 56.257 7.42808 56.257 8.76584V18.6845H56.2006L47.6698 7.72788C47.0546 6.96284 46.3554 6.63477 45.2928 6.63477C43.9509 6.63477 42.9434 7.61899 42.9434 9.1222V23.1375C42.9434 24.4753 43.7265 25.2686 44.9845 25.2686C46.2714 25.2686 47.0271 24.4753 47.0271 23.1375V13.192H47.0835L55.5578 24.0666C56.2295 24.9136 57.0952 25.2686 58.0463 25.2686C59.4172 25.2686 60.3393 24.2844 60.3393 22.7812V8.76584C60.3407 7.42808 59.5865 6.63477 58.2996 6.63477Z" fill="white"/>
<path d="M83.1362 6.79883H65.7663C64.3679 6.79883 63.5283 7.61902 63.5283 8.98505V23.1107C63.5283 24.4498 64.3115 25.27 65.6274 25.27C66.9143 25.27 67.6974 24.4498 67.6974 23.1107V18.1386H75.2207C76.4801 18.1386 77.2632 17.4556 77.2632 16.3073C77.2632 15.1336 76.4801 14.4223 75.2207 14.4223H67.6974V10.5151H83.1362C84.3942 10.5151 85.1498 9.80524 85.1498 8.65698C85.1498 7.50871 84.3942 6.79883 83.1362 6.79883Z" fill="white"/>
<path d="M95.7504 6.79883H81.6826C80.4231 6.79883 79.6689 7.50871 79.6689 8.65698C79.6689 9.80383 80.4231 10.5151 81.6826 10.5151H86.6319V23.0838C86.6319 24.4498 87.4151 25.27 88.731 25.27C90.0179 25.27 90.801 24.4498 90.801 23.0838V10.5151H95.7504C97.0084 10.5151 97.764 9.80524 97.764 8.65698C97.764 7.50871 97.0084 6.79883 95.7504 6.79883Z" fill="white"/>
<path d="M126.864 19.0633C126.756 18.2855 125.864 17.8726 125.169 18.2657L124.981 18.3718C124.593 18.5909 124.367 19.0123 124.419 19.4465C124.438 19.6063 124.448 19.7717 124.448 19.9414C124.448 21.8646 123.166 23.1826 121.242 23.1826C119.34 23.1826 118.035 21.8646 118.035 19.9414C118.035 17.997 119.34 16.6791 121.242 16.6791C121.806 16.6791 122.315 16.7922 122.753 17.0015C123.09 17.1627 123.484 17.1627 123.81 16.9803L123.859 16.952C124.674 16.4924 124.596 15.3201 123.726 14.9623C122.992 14.6597 122.154 14.4971 121.242 14.4971C118.549 14.4971 116.542 15.8942 115.835 18.0974C115.766 18.3095 115.711 18.5301 115.667 18.7564C115.596 19.1325 115.559 19.5271 115.559 19.9414C115.559 23.1599 117.859 25.3646 121.242 25.3646C124.603 25.3646 126.925 23.1614 126.925 19.9414C126.924 19.6388 126.903 19.3461 126.864 19.0633Z" fill="white"/>
<path d="M134.819 14.5615C133.293 14.5615 132.166 15.1668 131.501 16.2896H131.456V15.9007C131.456 15.1229 131.013 14.6266 130.24 14.6266C129.489 14.6266 129.024 15.1229 129.024 15.9007V23.9583C129.024 24.7573 129.489 25.2324 130.24 25.2324C131.015 25.2324 131.456 24.7573 131.456 23.9583V20.5659C131.456 18.0388 132.696 16.9358 134.818 16.9358C135.547 16.9358 136.034 16.4819 136.034 15.748C136.037 15.0155 135.55 14.5615 134.819 14.5615Z" fill="white"/>
<path d="M138.712 9.85156C137.961 9.85156 137.496 10.3267 137.496 11.1257V23.9588C137.496 24.7578 137.961 25.2329 138.712 25.2329C139.487 25.2329 139.928 24.7578 139.928 23.9588V11.1257C139.928 10.3281 139.487 9.85156 138.712 9.85156Z" fill="white"/>
<path d="M152.113 9.85156C151.384 9.85156 150.919 10.3479 150.919 11.1257V16.0086H150.874C150.056 15.0371 148.795 14.4969 147.203 14.4969C146.854 14.4969 146.518 14.5238 146.197 14.5761C145.116 14.7529 144.849 16.1486 145.799 16.6832C146.078 16.8401 146.411 16.8924 146.722 16.8062C147.022 16.7228 147.348 16.6789 147.691 16.6789C149.593 16.6789 150.919 18.0181 150.919 19.9413C150.919 21.8419 149.592 23.1824 147.691 23.1824C145.81 23.1824 144.506 21.8645 144.506 19.9413C144.506 19.6217 144.542 19.3177 144.609 19.0348C144.732 18.5215 144.479 17.9912 144.013 17.7282C143.279 17.3139 142.335 17.7183 142.167 18.53C142.076 18.9726 142.029 19.4435 142.029 19.9413C142.029 23.2037 144.086 25.3644 147.204 25.3644C148.797 25.3644 150.058 24.8242 150.876 23.8527H150.92V23.9602C150.92 24.7592 151.385 25.2343 152.115 25.2343C152.888 25.2343 153.354 24.7592 153.354 23.9602V11.1271C153.352 10.3493 152.886 9.85156 152.113 9.85156Z" fill="white"/>
<path d="M111.741 18.7566C111.498 18.7566 111.269 18.8301 111.08 18.9602C110.89 19.0889 110.74 19.2742 110.657 19.4962L109.939 21.4095H109.894L107.439 15.4688C107.218 14.9074 106.819 14.626 106.29 14.626C105.782 14.626 105.405 14.9074 105.184 15.4688L102.752 21.4321H102.707L100.428 15.4914C100.198 14.8961 99.7869 14.6528 99.2745 14.6288C98.5898 14.5977 98.002 15.1308 97.9962 15.7997C97.9933 16.0231 98.0382 16.1985 98.1511 16.4643L101.358 24.3282C101.601 24.9335 102.021 25.2361 102.618 25.2361C103.171 25.2361 103.613 24.9335 103.858 24.3282L106.246 18.6039H106.291L108.68 24.3282C108.923 24.9335 109.366 25.2361 109.941 25.2361C110.515 25.2361 110.935 24.9335 111.18 24.3282L112.815 20.3008C113.114 19.5598 112.556 18.7566 111.741 18.7566Z" fill="white"/>
<path d="M113.339 16.98C114.004 16.98 114.544 16.4533 114.544 15.8035C114.544 15.1537 114.004 14.627 113.339 14.627C112.674 14.627 112.135 15.1537 112.135 15.8035C112.135 16.4533 112.674 16.98 113.339 16.98Z" fill="url(#paint0_linear_2593_263157)"/>
<path opacity="0.8" d="M34.1594 21.265L22.8956 17.2588L22.5742 18.3816L32.7943 24.5641L34.1594 21.265Z" fill="url(#paint1_linear_2593_263157)"/>
<path opacity="0.8" d="M32.2511 0.814453L26.1074 7.97978L27.5724 8.99795L34.7627 3.38249L32.2511 0.814453Z" fill="url(#paint2_linear_2593_263157)"/>
<path opacity="0.8" d="M32.8064 7.42773L23.9238 12.7646L24.5897 14.026L34.4002 10.6533L32.8064 7.42773Z" fill="url(#paint3_linear_2593_263157)"/>
<path opacity="0.8" d="M33.3869 14.2314L26.9189 15.0813V16.9338L33.3869 17.7681V14.2314Z" fill="url(#paint4_linear_2593_263157)"/>
<path opacity="0.8" d="M34.7674 28.6219L27.4252 22.7646L26.2656 24.1901L32.3586 31.3059L34.7674 28.6219Z" fill="url(#paint5_linear_2593_263157)"/>
<path d="M33.6949 3.71608C34.7087 3.71608 35.5305 2.91328 35.5305 1.92298C35.5305 0.93268 34.7087 0.129883 33.6949 0.129883C32.6812 0.129883 31.8594 0.93268 31.8594 1.92298C31.8594 2.91328 32.6812 3.71608 33.6949 3.71608Z" fill="#FF4800"/>
<path d="M33.6949 10.7913C34.7087 10.7913 35.5305 9.98848 35.5305 8.99818C35.5305 8.00787 34.7087 7.20508 33.6949 7.20508C32.6812 7.20508 31.8594 8.00787 31.8594 8.99818C31.8594 9.98848 32.6812 10.7913 33.6949 10.7913Z" fill="#FF007A"/>
<path d="M33.6949 17.7923C34.7087 17.7923 35.5305 16.9895 35.5305 15.9992C35.5305 15.0089 34.7087 14.2061 33.6949 14.2061C32.6812 14.2061 31.8594 15.0089 31.8594 15.9992C31.8594 16.9895 32.6812 17.7923 33.6949 17.7923Z" fill="#0051F4"/>
<path d="M33.6949 24.7932C34.7087 24.7932 35.5305 23.9904 35.5305 23.0001C35.5305 22.0098 34.7087 21.207 33.6949 21.207C32.6812 21.207 31.8594 22.0098 31.8594 23.0001C31.8594 23.9904 32.6812 24.7932 33.6949 24.7932Z" fill="#00BDFF"/>
<path d="M33.6949 31.8684C34.7087 31.8684 35.5305 31.0656 35.5305 30.0753C35.5305 29.085 34.7087 28.2822 33.6949 28.2822C32.6812 28.2822 31.8594 29.085 31.8594 30.0753C31.8594 31.0656 32.6812 31.8684 33.6949 31.8684Z" fill="#B33EFF"/>
<path opacity="0.8" d="M2.01953 21.265L13.2834 17.2588L13.6048 18.3816L3.38463 24.5641L2.01953 21.265Z" fill="url(#paint6_linear_2593_263157)"/>
<path opacity="0.8" d="M3.92617 0.814453L10.0713 7.97978L8.60629 8.99795L1.41602 3.38249L3.92617 0.814453Z" fill="url(#paint7_linear_2593_263157)"/>
<path opacity="0.8" d="M3.37311 7.42773L12.2542 12.7646L11.5897 14.026L1.7793 10.6533L3.37311 7.42773Z" fill="url(#paint8_linear_2593_263157)"/>
<path opacity="0.8" d="M2.79199 14.2314L9.25991 15.0813V16.9338L2.79199 17.7681V14.2314Z" fill="url(#paint9_linear_2593_263157)"/>
<path opacity="0.8" d="M1.41113 28.6219L8.7534 22.7646L9.91293 24.1901L3.81995 31.3059L1.41113 28.6219Z" fill="url(#paint10_linear_2593_263157)"/>
<path d="M2.48401 3.71608C3.49776 3.71608 4.31957 2.91328 4.31957 1.92298C4.31957 0.93268 3.49776 0.129883 2.48401 0.129883C1.47025 0.129883 0.648438 0.93268 0.648438 1.92298C0.648438 2.91328 1.47025 3.71608 2.48401 3.71608Z" fill="#FF4800"/>
<path d="M2.48401 10.7913C3.49776 10.7913 4.31957 9.98848 4.31957 8.99818C4.31957 8.00787 3.49776 7.20508 2.48401 7.20508C1.47025 7.20508 0.648438 8.00787 0.648438 8.99818C0.648438 9.98848 1.47025 10.7913 2.48401 10.7913Z" fill="#FF007A"/>
<path d="M2.48401 17.7923C3.49776 17.7923 4.31957 16.9895 4.31957 15.9992C4.31957 15.0089 3.49776 14.2061 2.48401 14.2061C1.47025 14.2061 0.648438 15.0089 0.648438 15.9992C0.648438 16.9895 1.47025 17.7923 2.48401 17.7923Z" fill="#0051F4"/>
<path d="M2.48401 24.7932C3.49776 24.7932 4.31957 23.9904 4.31957 23.0001C4.31957 22.0098 3.49776 21.207 2.48401 21.207C1.47025 21.207 0.648438 22.0098 0.648438 23.0001C0.648438 23.9904 1.47025 24.7932 2.48401 24.7932Z" fill="#00BDFF"/>
<path d="M2.48401 31.8684C3.49776 31.8684 4.31957 31.0656 4.31957 30.0753C4.31957 29.085 3.49776 28.2822 2.48401 28.2822C1.47025 28.2822 0.648438 29.085 0.648438 30.0753C0.648438 31.0656 1.47025 31.8684 2.48401 31.8684Z" fill="#B33EFF"/>
<path opacity="0.8" d="M18.0888 2.39062H16.3213L16.9684 7.80952H18.0888H19.2093L19.8578 2.39062H18.0888Z" fill="url(#paint11_linear_2593_263157)"/>
<path opacity="0.8" d="M18.0888 9.47852H16.3213L17.6806 14.8974H18.0888H18.497L19.8563 9.47852H18.0888Z" fill="url(#paint12_linear_2593_263157)"/>
<path d="M18.0885 3.71608C19.1023 3.71608 19.9241 2.91328 19.9241 1.92298C19.9241 0.93268 19.1023 0.129883 18.0885 0.129883C17.0747 0.129883 16.2529 0.93268 16.2529 1.92298C16.2529 2.91328 17.0747 3.71608 18.0885 3.71608Z" fill="#FF007A"/>
<path d="M18.0885 10.7913C19.1023 10.7913 19.9241 9.98848 19.9241 8.99818C19.9241 8.00787 19.1023 7.20508 18.0885 7.20508C17.0747 7.20508 16.2529 8.00787 16.2529 8.99818C16.2529 9.98848 17.0747 10.7913 18.0885 10.7913Z" fill="#00BDFF"/>
<path opacity="0.8" d="M18.0883 29.6079H19.8558L19.2088 24.1904H18.0883H16.9679L16.3193 29.6079H18.0883Z" fill="url(#paint13_linear_2593_263157)"/>
<path opacity="0.8" d="M18.0888 22.52H19.8563L18.497 17.1025H18.0888H17.6806L16.3213 22.52H18.0888Z" fill="url(#paint14_linear_2593_263157)"/>
<path d="M18.0885 31.8684C19.1023 31.8684 19.9241 31.0656 19.9241 30.0753C19.9241 29.085 19.1023 28.2822 18.0885 28.2822C17.0747 28.2822 16.2529 29.085 16.2529 30.0753C16.2529 31.0656 17.0747 31.8684 18.0885 31.8684Z" fill="#FF0025"/>
<path d="M18.0885 24.7942C19.1023 24.7942 19.9241 23.9914 19.9241 23.0011C19.9241 22.0108 19.1023 21.208 18.0885 21.208C17.0747 21.208 16.2529 22.0108 16.2529 23.0011C16.2529 23.9914 17.0747 24.7942 18.0885 24.7942Z" fill="#B33EFF"/>
<path d="M18.0885 17.7923C19.1023 17.7923 19.9241 16.9895 19.9241 15.9992C19.9241 15.0089 19.1023 14.2061 18.0885 14.2061C17.0747 14.2061 16.2529 15.0089 16.2529 15.9992C16.2529 16.9895 17.0747 17.7923 18.0885 17.7923Z" fill="#FF4800"/>
<path opacity="0.8" d="M24.6467 1.33887L21.3389 10.0725L22.6736 10.5872L28.0109 2.75157L24.6467 1.33887Z" fill="url(#paint15_linear_2593_263157)"/>
<path d="M26.3815 3.71608C27.3952 3.71608 28.217 2.91328 28.217 1.92298C28.217 0.93268 27.3952 0.129883 26.3815 0.129883C25.3677 0.129883 24.5459 0.93268 24.5459 1.92298C24.5459 2.91328 25.3677 3.71608 26.3815 3.71608Z" fill="#B33EFF"/>
<path opacity="0.8" d="M24.9169 7.91699L20.8867 13.2793L21.8306 14.026L27.233 10.5868L24.9169 7.91699Z" fill="url(#paint16_linear_2593_263157)"/>
<path d="M26.3815 10.7913C27.3952 10.7913 28.217 9.98848 28.217 8.99818C28.217 8.00787 27.3952 7.20508 26.3815 7.20508C25.3677 7.20508 24.5459 8.00787 24.5459 8.99818C24.5459 9.98848 25.3677 10.7913 26.3815 10.7913Z" fill="#0051F4"/>
<path opacity="0.8" d="M25.806 14.2969L20.9551 15.6304V16.4025L25.5324 17.5904L25.806 14.2969Z" fill="url(#paint17_linear_2593_263157)"/>
<path opacity="0.8" d="M26.8755 21.2736L21.3384 17.5898L20.7246 18.082L24.8242 23.9505L26.8755 21.2736Z" fill="url(#paint18_linear_2593_263157)"/>
<path opacity="0.8" d="M27.5298 28.6766L21.7249 19.8115L20.8867 20.561L24.6027 30.5206L27.5298 28.6766Z" fill="url(#paint19_linear_2593_263157)"/>
<path d="M26.3815 17.7923C27.3952 17.7923 28.217 16.9895 28.217 15.9992C28.217 15.0089 27.3952 14.2061 26.3815 14.2061C25.3677 14.2061 24.5459 15.0089 24.5459 15.9992C24.5459 16.9895 25.3677 17.7923 26.3815 17.7923Z" fill="#FF0025"/>
<path d="M26.3815 24.7932C27.3952 24.7932 28.217 23.9904 28.217 23.0001C28.217 22.0098 27.3952 21.207 26.3815 21.207C25.3677 21.207 24.5459 22.0098 24.5459 23.0001C24.5459 23.9904 25.3677 24.7932 26.3815 24.7932Z" fill="#FF007A"/>
<path d="M26.3815 31.8684C27.3952 31.8684 28.217 31.0656 28.217 30.0753C28.217 29.085 27.3952 28.2822 26.3815 28.2822C25.3677 28.2822 24.5459 29.085 24.5459 30.0753C24.5459 31.0656 25.3677 31.8684 26.3815 31.8684Z" fill="#00BDFF"/>
<path opacity="0.8" d="M11.5312 1.33887L14.839 10.0725L13.5043 10.5872L8.16699 2.75157L11.5312 1.33887Z" fill="url(#paint20_linear_2593_263157)"/>
<path d="M9.79553 3.71608C10.8093 3.71608 11.6311 2.91328 11.6311 1.92298C11.6311 0.93268 10.8093 0.129883 9.79553 0.129883C8.78177 0.129883 7.95996 0.93268 7.95996 1.92298C7.95996 2.91328 8.78177 3.71608 9.79553 3.71608Z" fill="#FF0025"/>
<path opacity="0.8" d="M11.2591 7.91602L15.2907 13.2798L14.3468 14.0264L8.94434 10.5873L11.2591 7.91602Z" fill="url(#paint21_linear_2593_263157)"/>
<path d="M9.79553 10.7913C10.8093 10.7913 11.6311 9.98848 11.6311 8.99818C11.6311 8.00787 10.8093 7.20508 9.79553 7.20508C8.78177 7.20508 7.95996 8.00787 7.95996 8.99818C7.95996 9.98848 8.78177 10.7913 9.79553 10.7913Z" fill="#B33EFF"/>
<path opacity="0.8" d="M10.1543 14.2373L15.2224 15.6302V16.4023L10.1543 17.7585V14.2373Z" fill="url(#paint22_linear_2593_263157)"/>
<path opacity="0.8" d="M8.77344 21.5098L14.8389 17.5898L15.4527 18.082L11.2677 24.0722L8.77344 21.5098Z" fill="url(#paint23_linear_2593_263157)"/>
<path opacity="0.8" d="M8.19434 29.197L14.4523 19.8115L15.2905 20.561L11.4804 30.7893L8.19434 29.197Z" fill="url(#paint24_linear_2593_263157)"/>
<path d="M9.79553 17.7923C10.8093 17.7923 11.6311 16.9895 11.6311 15.9992C11.6311 15.0089 10.8093 14.2061 9.79553 14.2061C8.78177 14.2061 7.95996 15.0089 7.95996 15.9992C7.95996 16.9895 8.78177 17.7923 9.79553 17.7923Z" fill="#FF007A"/>
<path d="M9.79553 24.7932C10.8093 24.7932 11.6311 23.9904 11.6311 23.0001C11.6311 22.0098 10.8093 21.207 9.79553 21.207C8.78177 21.207 7.95996 22.0098 7.95996 23.0001C7.95996 23.9904 8.78177 24.7932 9.79553 24.7932Z" fill="#0051F4"/>
<path d="M9.79553 31.8684C10.8093 31.8684 11.6311 31.0656 11.6311 30.0753C11.6311 29.085 10.8093 28.2822 9.79553 28.2822C8.78177 28.2822 7.95996 29.085 7.95996 30.0753C7.95996 31.0656 8.78177 31.8684 9.79553 31.8684Z" fill="#FF4800"/>
<defs>
<linearGradient id="paint0_linear_2593_263157" x1="110.813" y1="17.6917" x2="114.959" y2="14.4434" gradientUnits="userSpaceOnUse">
<stop stop-color="#0020DA"/>
<stop offset="0.2021" stop-color="#00BDFF"/>
<stop offset="0.418" stop-color="#B33EFF"/>
<stop offset="0.6189" stop-color="#FF007A"/>
<stop offset="0.8086" stop-color="#FF0025"/>
<stop offset="1" stop-color="#FF4800"/>
</linearGradient>
<linearGradient id="paint1_linear_2593_263157" x1="32.6631" y1="22.5451" x2="24.0936" y2="18.4648" gradientUnits="userSpaceOnUse">
<stop offset="8.07343e-08" stop-color="#BC619C"/>
<stop offset="0.9992" stop-color="white" stop-opacity="0"/>
</linearGradient>
<linearGradient id="paint2_linear_2593_263157" x1="33.6405" y1="1.97944" x2="26.5361" y2="8.58619" gradientUnits="userSpaceOnUse">
<stop offset="8.07343e-08" stop-color="#BC619C"/>
<stop offset="0.9992" stop-color="white" stop-opacity="0"/>
</linearGradient>
<linearGradient id="paint3_linear_2593_263157" x1="33.0856" y1="9.29099" x2="26.2446" y2="12.755" gradientUnits="userSpaceOnUse">
<stop offset="8.07343e-08" stop-color="#BC619C"/>
<stop offset="0.9992" stop-color="white" stop-opacity="0"/>
</linearGradient>
<linearGradient id="paint4_linear_2593_263157" x1="33.7332" y1="15.9996" x2="28.704" y2="15.9996" gradientUnits="userSpaceOnUse">
<stop offset="8.07343e-08" stop-color="#BC619C"/>
<stop offset="0.9992" stop-color="white" stop-opacity="0"/>
</linearGradient>
<linearGradient id="paint5_linear_2593_263157" x1="33.1299" y1="29.5407" x2="28.0091" y2="24.2986" gradientUnits="userSpaceOnUse">
<stop offset="8.07343e-08" stop-color="#BC619C"/>
<stop offset="0.9992" stop-color="white" stop-opacity="0"/>
</linearGradient>
<linearGradient id="paint6_linear_2593_263157" x1="3.51564" y1="22.5451" x2="12.0852" y2="18.4648" gradientUnits="userSpaceOnUse">
<stop offset="8.07343e-08" stop-color="#BC619C"/>
<stop offset="0.9992" stop-color="white" stop-opacity="0"/>
</linearGradient>
<linearGradient id="paint7_linear_2593_263157" x1="2.53793" y1="1.97944" x2="9.64237" y2="8.58618" gradientUnits="userSpaceOnUse">
<stop offset="8.07343e-08" stop-color="#BC619C"/>
<stop offset="0.9992" stop-color="white" stop-opacity="0"/>
</linearGradient>
<linearGradient id="paint8_linear_2593_263157" x1="3.09364" y1="9.29099" x2="9.9346" y2="12.755" gradientUnits="userSpaceOnUse">
<stop offset="8.07343e-08" stop-color="#BC619C"/>
<stop offset="0.9992" stop-color="white" stop-opacity="0"/>
</linearGradient>
<linearGradient id="paint9_linear_2593_263157" x1="2.44548" y1="15.9996" x2="7.47465" y2="15.9996" gradientUnits="userSpaceOnUse">
<stop offset="8.07343e-08" stop-color="#BC619C"/>
<stop offset="0.9992" stop-color="white" stop-opacity="0"/>
</linearGradient>
<linearGradient id="paint10_linear_2593_263157" x1="3.04843" y1="29.5407" x2="8.16927" y2="24.2986" gradientUnits="userSpaceOnUse">
<stop offset="8.07343e-08" stop-color="#BC619C"/>
<stop offset="0.9992" stop-color="white" stop-opacity="0"/>
</linearGradient>
<linearGradient id="paint11_linear_2593_263157" x1="18.0889" y1="-0.904424" x2="18.0889" y2="8.65003" gradientUnits="userSpaceOnUse">
<stop offset="8.07343e-08" stop-color="#BC619C"/>
<stop offset="0.9992" stop-color="white" stop-opacity="0"/>
</linearGradient>
<linearGradient id="paint12_linear_2593_263157" x1="18.0885" y1="7.20466" x2="18.0885" y2="13.7249" gradientUnits="userSpaceOnUse">
<stop offset="8.07343e-08" stop-color="#BC619C"/>
<stop offset="0.9992" stop-color="white" stop-opacity="0"/>
</linearGradient>
<linearGradient id="paint13_linear_2593_263157" x1="18.088" y1="32.9784" x2="18.088" y2="23.424" gradientUnits="userSpaceOnUse">
<stop offset="8.07343e-08" stop-color="#BC619C"/>
<stop offset="0.9992" stop-color="white" stop-opacity="0"/>
</linearGradient>
<linearGradient id="paint14_linear_2593_263157" x1="18.0889" y1="24.7947" x2="18.0889" y2="18.2745" gradientUnits="userSpaceOnUse">
<stop offset="8.07343e-08" stop-color="#BC619C"/>
<stop offset="0.9992" stop-color="white" stop-opacity="0"/>
</linearGradient>
<linearGradient id="paint15_linear_2593_263157" x1="26.0334" y1="2.62532" x2="22.6473" y2="9.59752" gradientUnits="userSpaceOnUse">
<stop offset="8.07343e-08" stop-color="#BC619C"/>
<stop offset="0.9992" stop-color="white" stop-opacity="0"/>
</linearGradient>
<linearGradient id="paint16_linear_2593_263157" x1="26.4917" y1="8.84757" x2="21.9413" y2="13.4753" gradientUnits="userSpaceOnUse">
<stop offset="8.07343e-08" stop-color="#BC619C"/>
<stop offset="0.9992" stop-color="white" stop-opacity="0"/>
</linearGradient>
<linearGradient id="paint17_linear_2593_263157" x1="25.6021" y1="15.9441" x2="21.3037" y2="15.9917" gradientUnits="userSpaceOnUse">
<stop offset="8.07343e-08" stop-color="#BC619C"/>
<stop offset="0.9992" stop-color="white" stop-opacity="0"/>
</linearGradient>
<linearGradient id="paint18_linear_2593_263157" x1="26.0873" y1="22.8301" x2="22.0007" y2="18.8927" gradientUnits="userSpaceOnUse">
<stop offset="8.07343e-08" stop-color="#BC619C"/>
<stop offset="0.9992" stop-color="white" stop-opacity="0"/>
</linearGradient>
<linearGradient id="paint19_linear_2593_263157" x1="25.6382" y1="28.7934" x2="22.2629" y2="22.1427" gradientUnits="userSpaceOnUse">
<stop offset="8.07343e-08" stop-color="#BC619C"/>
<stop offset="0.9992" stop-color="white" stop-opacity="0"/>
</linearGradient>
<linearGradient id="paint20_linear_2593_263157" x1="10.1443" y1="2.62532" x2="13.5304" y2="9.59752" gradientUnits="userSpaceOnUse">
<stop offset="8.07343e-08" stop-color="#BC619C"/>
<stop offset="0.9992" stop-color="white" stop-opacity="0"/>
</linearGradient>
<linearGradient id="paint21_linear_2593_263157" x1="9.68415" y1="8.84663" x2="14.2358" y2="13.4756" gradientUnits="userSpaceOnUse">
<stop offset="8.07343e-08" stop-color="#BC619C"/>
<stop offset="0.9992" stop-color="white" stop-opacity="0"/>
</linearGradient>
<linearGradient id="paint22_linear_2593_263157" x1="10.4043" y1="16.0007" x2="14.8741" y2="16.0502" gradientUnits="userSpaceOnUse">
<stop offset="8.07343e-08" stop-color="#BC619C"/>
<stop offset="0.9992" stop-color="white" stop-opacity="0"/>
</linearGradient>
<linearGradient id="paint23_linear_2593_263157" x1="9.91394" y1="22.8893" x2="14.0964" y2="18.8597" gradientUnits="userSpaceOnUse">
<stop offset="8.07343e-08" stop-color="#BC619C"/>
<stop offset="0.9992" stop-color="white" stop-opacity="0"/>
</linearGradient>
<linearGradient id="paint24_linear_2593_263157" x1="10.3412" y1="29.0454" x2="13.8249" y2="22.1811" gradientUnits="userSpaceOnUse">
<stop offset="8.07343e-08" stop-color="#BC619C"/>
<stop offset="0.9992" stop-color="white" stop-opacity="0"/>
</linearGradient>
</defs>
</svg>
