<?xml version="1.0" encoding="utf-8"?>
<!-- Generator: Adobe Illustrator 25.2.1, SVG Export Plug-In . SVG Version: 6.00 Build 0)  -->
<svg version="1.1" id="Layer_1" xmlns="http://www.w3.org/2000/svg" xmlns:xlink="http://www.w3.org/1999/xlink" x="0px" y="0px"
	 viewBox="0 0 1243.43 410.15" style="enable-background:new 0 0 1243.43 410.15;" xml:space="preserve">
<style type="text/css">
	.st0{display:none;fill:#090021;}
	.st1{fill:#090021;}
	.st2{fill:url(#SVGID_1_);}
	.st3{opacity:0.8;fill:url(#SVGID_2_);}
	.st4{opacity:0.8;fill:url(#SVGID_3_);}
	.st5{opacity:0.8;fill:url(#SVGID_4_);}
	.st6{opacity:0.8;fill:url(#SVGID_5_);}
	.st7{opacity:0.8;fill:url(#SVGID_6_);}
	.st8{fill:#FF4800;}
	.st9{fill:#FF007A;}
	.st10{fill:#0051F4;}
	.st11{fill:#00BDFF;}
	.st12{fill:#B33EFF;}
	.st13{opacity:0.8;fill:url(#SVGID_7_);}
	.st14{opacity:0.8;fill:url(#SVGID_8_);}
	.st15{opacity:0.8;fill:url(#SVGID_9_);}
	.st16{opacity:0.8;fill:url(#SVGID_10_);}
	.st17{opacity:0.8;fill:url(#SVGID_11_);}
	.st18{opacity:0.8;fill:url(#SVGID_12_);}
	.st19{opacity:0.8;fill:url(#SVGID_13_);}
	.st20{opacity:0.8;fill:url(#SVGID_14_);}
	.st21{opacity:0.8;fill:url(#SVGID_15_);}
	.st22{fill:#FF0025;}
	.st23{opacity:0.8;fill:url(#SVGID_16_);}
	.st24{opacity:0.8;fill:url(#SVGID_17_);}
	.st25{opacity:0.8;fill:url(#SVGID_18_);}
	.st26{opacity:0.8;fill:url(#SVGID_19_);}
	.st27{opacity:0.8;fill:url(#SVGID_20_);}
	.st28{opacity:0.8;fill:url(#SVGID_21_);}
	.st29{opacity:0.8;fill:url(#SVGID_22_);}
	.st30{opacity:0.8;fill:url(#SVGID_23_);}
	.st31{opacity:0.8;fill:url(#SVGID_24_);}
	.st32{opacity:0.8;fill:url(#SVGID_25_);}
</style>
<rect class="st0" width="1243.43" height="410.15"/>
<g>
	<g>
		<g>
			<path class="st1" d="M492.53,138.85c-8.7,0-14.11,5.61-14.11,15.07v70.14h-0.39l-58.93-77.48c-4.25-5.41-9.08-7.73-16.42-7.73
				c-9.27,0-16.23,6.96-16.23,17.59v99.11c0,9.46,5.41,15.07,14.1,15.07c8.89,0,14.11-5.61,14.11-15.07v-70.33h0.39l58.54,76.9
				c4.64,5.99,10.62,8.5,17.19,8.5c9.47,0,15.84-6.96,15.84-17.59v-99.11C506.63,144.46,501.42,138.85,492.53,138.85z"/>
			<path class="st1" d="M664.1,140.01H544.11c-9.66,0-15.46,5.8-15.46,15.46v99.89c0,9.47,5.41,15.27,14.5,15.27
				c8.89,0,14.3-5.8,14.3-15.27V220.2h51.97c8.7,0,14.11-4.83,14.11-12.95c0-8.3-5.41-13.33-14.11-13.33h-51.97v-27.63H664.1
				c8.69,0,13.91-5.02,13.91-13.14C678.01,145.03,672.79,140.01,664.1,140.01z"/>
			<path class="st1" d="M751.24,140.01h-97.18c-8.7,0-13.91,5.02-13.91,13.14c0,8.11,5.21,13.14,13.91,13.14h34.19v88.88
				c0,9.66,5.41,15.46,14.5,15.46c8.89,0,14.3-5.8,14.3-15.46v-88.88h34.19c8.69,0,13.91-5.02,13.91-13.14
				C765.15,145.03,759.93,140.01,751.24,140.01z"/>
		</g>
		<g>
			<path class="st1" d="M966.17,226.74c-0.75-5.5-6.91-8.42-11.71-5.64l-1.3,0.75c-2.68,1.55-4.24,4.53-3.88,7.6
				c0.13,1.13,0.2,2.3,0.2,3.5c0,13.6-8.86,22.92-22.15,22.92c-13.14,0-22.15-9.32-22.15-22.92c0-13.75,9.01-23.07,22.15-23.07
				c3.9,0,7.41,0.8,10.44,2.28c2.33,1.14,5.05,1.14,7.3-0.15l0.34-0.2c5.63-3.25,5.09-11.54-0.92-14.07
				c-5.07-2.14-10.86-3.29-17.16-3.29c-18.6,0-32.47,9.88-37.35,25.46c-0.48,1.5-0.86,3.06-1.16,4.66
				c-0.49,2.66-0.75,5.45-0.75,8.38c0,22.76,15.89,38.35,39.26,38.35c23.22,0,39.26-15.58,39.26-38.35
				C966.58,230.81,966.44,228.74,966.17,226.74z"/>
			<path class="st1" d="M1021.12,194.91c-10.54,0-18.33,4.28-22.92,12.22h-0.31v-2.75c0-5.5-3.06-9.01-8.4-9.01
				c-5.19,0-8.4,3.51-8.4,9.01v56.98c0,5.65,3.21,9.01,8.4,9.01c5.35,0,8.4-3.36,8.4-9.01v-23.99c0-17.87,8.56-25.67,23.22-25.67
				c5.04,0,8.4-3.21,8.4-8.4C1029.53,198.12,1026.17,194.91,1021.12,194.91z"/>
			<path class="st1" d="M1048.01,161.6c-5.19,0-8.4,3.36-8.4,9.01v90.75c0,5.65,3.21,9.01,8.4,9.01c5.35,0,8.4-3.36,8.4-9.01v-90.75
				C1056.41,164.97,1053.36,161.6,1048.01,161.6z"/>
			<path class="st1" d="M1140.59,161.6c-5.04,0-8.25,3.51-8.25,9.01v34.53h-0.31c-5.65-6.87-14.36-10.69-25.36-10.69
				c-2.41,0-4.73,0.19-6.95,0.56c-7.47,1.25-9.31,11.12-2.75,14.9l0,0c1.93,1.11,4.23,1.48,6.38,0.87c2.07-0.59,4.32-0.9,6.69-0.9
				c13.14,0,22.3,9.47,22.3,23.07c0,13.44-9.17,22.92-22.3,22.92c-12.99,0-22-9.32-22-22.92c0-2.26,0.25-4.41,0.71-6.41
				c0.85-3.63-0.9-7.38-4.12-9.24l0,0c-5.07-2.93-11.59-0.07-12.75,5.67c-0.63,3.13-0.95,6.46-0.95,9.98
				c0,23.07,14.21,38.35,35.75,38.35c11,0,19.71-3.82,25.36-10.69h0.31v0.76c0,5.65,3.21,9.01,8.25,9.01c5.34,0,8.56-3.36,8.56-9.01
				v-90.75C1149.15,165.12,1145.93,161.6,1140.59,161.6z"/>
			<g>
				<path class="st1" d="M861.7,224.57c-1.68,0-3.26,0.52-4.57,1.44c-1.31,0.91-2.35,2.22-2.92,3.79l-4.96,13.53h-0.31l-16.96-42.01
					c-1.53-3.97-4.28-5.96-7.94-5.96c-3.51,0-6.11,1.99-7.64,5.96l-16.8,42.17h-0.31l-15.74-42.01c-1.59-4.21-4.43-5.93-7.97-6.1
					c-4.73-0.22-8.79,3.55-8.83,8.28c-0.02,1.58,0.29,2.82,1.07,4.7l22.15,55.61c1.68,4.28,4.58,6.42,8.71,6.42
					c3.82,0,6.87-2.14,8.56-6.42l16.5-40.48h0.31l16.5,40.48c1.68,4.28,4.74,6.42,8.71,6.42c3.97,0,6.87-2.14,8.56-6.42l11.3-28.48
					C871.18,230.25,867.33,224.57,861.7,224.57z"/>
				<linearGradient id="SVGID_1_" gradientUnits="userSpaceOnUse" x1="855.2896" y1="217.0426" x2="884.4388" y2="194.7346">
					<stop  offset="0" style="stop-color:#0020DA"/>
					<stop  offset="0.2021" style="stop-color:#00BDFF"/>
					<stop  offset="0.418" style="stop-color:#B33EFF"/>
					<stop  offset="0.6189" style="stop-color:#FF007A"/>
					<stop  offset="0.8086" style="stop-color:#FF0025"/>
					<stop  offset="1" style="stop-color:#FF4800"/>
				</linearGradient>
				<circle class="st2" cx="872.74" cy="203.69" r="8.32"/>
			</g>
		</g>
	</g>
	<g>
		<g>
			<g>
				<linearGradient id="SVGID_2_" gradientUnits="userSpaceOnUse" x1="315.4337" y1="251.3621" x2="255.7309" y2="223.5933">
					<stop  offset="8.073434e-08" style="stop-color:#BC619C"/>
					<stop  offset="0.9992" style="stop-color:#FFFFFF;stop-opacity:0"/>
				</linearGradient>
				<polygon class="st3" points="325.77,242.31 247.96,213.98 245.74,221.92 316.34,265.64 				"/>
				<linearGradient id="SVGID_3_" gradientUnits="userSpaceOnUse" x1="322.1884" y1="105.9283" x2="272.0476" y2="151.4775">
					<stop  offset="8.073434e-08" style="stop-color:#BC619C"/>
					<stop  offset="0.9992" style="stop-color:#FFFFFF;stop-opacity:0"/>
				</linearGradient>
				<polygon class="st4" points="312.59,97.69 270.15,148.36 280.27,155.56 329.94,115.85 				"/>
				<linearGradient id="SVGID_4_" gradientUnits="userSpaceOnUse" x1="318.3491" y1="157.6361" x2="270.6468" y2="181.2322">
					<stop  offset="8.073434e-08" style="stop-color:#BC619C"/>
					<stop  offset="0.9992" style="stop-color:#FFFFFF;stop-opacity:0"/>
				</linearGradient>
				<polygon class="st5" points="316.42,144.46 255.06,182.2 259.66,191.12 327.43,167.27 				"/>
				<linearGradient id="SVGID_5_" gradientUnits="userSpaceOnUse" x1="322.8223" y1="205.0735" x2="288.0812" y2="205.0735">
					<stop  offset="8.073434e-08" style="stop-color:#BC619C"/>
					<stop  offset="0.9992" style="stop-color:#FFFFFF;stop-opacity:0"/>
				</linearGradient>
				<polygon class="st6" points="320.43,192.57 275.75,198.58 275.75,211.68 320.43,217.58 				"/>
				<linearGradient id="SVGID_6_" gradientUnits="userSpaceOnUse" x1="318.6584" y1="300.8274" x2="282.4363" y2="264.6053">
					<stop  offset="8.073434e-08" style="stop-color:#BC619C"/>
					<stop  offset="0.9992" style="stop-color:#FFFFFF;stop-opacity:0"/>
				</linearGradient>
				<polygon class="st7" points="329.97,294.33 279.25,252.91 271.24,262.99 313.33,313.31 				"/>
				<circle class="st8" cx="322.56" cy="105.53" r="12.68"/>
				<circle class="st9" cx="322.56" cy="155.56" r="12.68"/>
				<circle class="st10" cx="322.56" cy="205.07" r="12.68"/>
				<circle class="st11" cx="322.56" cy="254.58" r="12.68"/>
				<circle class="st12" cx="322.56" cy="304.61" r="12.68"/>
			</g>
			<g>
				
					<linearGradient id="SVGID_7_" gradientUnits="userSpaceOnUse" x1="4904.6113" y1="251.3621" x2="4844.9087" y2="223.5933" gradientTransform="matrix(-1 0 0 1 5018.6963 0)">
					<stop  offset="8.073434e-08" style="stop-color:#BC619C"/>
					<stop  offset="0.9992" style="stop-color:#FFFFFF;stop-opacity:0"/>
				</linearGradient>
				<polygon class="st13" points="103.75,242.31 181.56,213.98 183.78,221.92 113.18,265.64 				"/>
				
					<linearGradient id="SVGID_8_" gradientUnits="userSpaceOnUse" x1="4911.3662" y1="105.9283" x2="4861.2256" y2="151.4775" gradientTransform="matrix(-1 0 0 1 5018.6963 0)">
					<stop  offset="8.073434e-08" style="stop-color:#BC619C"/>
					<stop  offset="0.9992" style="stop-color:#FFFFFF;stop-opacity:0"/>
				</linearGradient>
				<polygon class="st14" points="116.92,97.69 159.37,148.36 149.25,155.56 99.58,115.85 				"/>
				
					<linearGradient id="SVGID_9_" gradientUnits="userSpaceOnUse" x1="4907.5269" y1="157.6361" x2="4859.8247" y2="181.2322" gradientTransform="matrix(-1 0 0 1 5018.6963 0)">
					<stop  offset="8.073434e-08" style="stop-color:#BC619C"/>
					<stop  offset="0.9992" style="stop-color:#FFFFFF;stop-opacity:0"/>
				</linearGradient>
				<polygon class="st15" points="113.1,144.46 174.45,182.2 169.86,191.12 102.09,167.27 				"/>
				
					<linearGradient id="SVGID_10_" gradientUnits="userSpaceOnUse" x1="4912" y1="205.0735" x2="4877.2588" y2="205.0735" gradientTransform="matrix(-1 0 0 1 5018.6963 0)">
					<stop  offset="8.073434e-08" style="stop-color:#BC619C"/>
					<stop  offset="0.9992" style="stop-color:#FFFFFF;stop-opacity:0"/>
				</linearGradient>
				<polygon class="st16" points="109.09,192.57 153.77,198.58 153.77,211.68 109.09,217.58 				"/>
				
					<linearGradient id="SVGID_11_" gradientUnits="userSpaceOnUse" x1="4907.8359" y1="300.8274" x2="4871.6138" y2="264.6053" gradientTransform="matrix(-1 0 0 1 5018.6963 0)">
					<stop  offset="8.073434e-08" style="stop-color:#BC619C"/>
					<stop  offset="0.9992" style="stop-color:#FFFFFF;stop-opacity:0"/>
				</linearGradient>
				<polygon class="st17" points="99.55,294.33 150.27,252.91 158.28,262.99 116.19,313.31 				"/>
				<circle class="st8" cx="106.96" cy="105.53" r="12.68"/>
				<circle class="st9" cx="106.96" cy="155.56" r="12.68"/>
				<circle class="st10" cx="106.96" cy="205.07" r="12.68"/>
				<circle class="st11" cx="106.96" cy="254.58" r="12.68"/>
				<circle class="st12" cx="106.96" cy="304.61" r="12.68"/>
			</g>
		</g>
		<g>
			<g>
				<linearGradient id="SVGID_12_" gradientUnits="userSpaceOnUse" x1="214.7607" y1="85.5389" x2="214.7607" y2="153.1037">
					<stop  offset="8.073434e-08" style="stop-color:#BC619C"/>
					<stop  offset="0.9992" style="stop-color:#FFFFFF;stop-opacity:0"/>
				</linearGradient>
				<polygon class="st18" points="214.76,108.84 214.76,108.84 202.55,108.84 207.02,147.16 214.76,147.16 214.76,147.16 
					222.5,147.16 226.98,108.84 				"/>
				<linearGradient id="SVGID_13_" gradientUnits="userSpaceOnUse" x1="214.7579" y1="142.8803" x2="214.7579" y2="188.9886">
					<stop  offset="8.073434e-08" style="stop-color:#BC619C"/>
					<stop  offset="0.9992" style="stop-color:#FFFFFF;stop-opacity:0"/>
				</linearGradient>
				<polygon class="st19" points="214.76,158.96 202.55,158.96 211.94,197.28 214.76,197.28 217.58,197.28 226.97,158.96 				"/>
				<circle class="st9" cx="214.76" cy="105.53" r="12.68"/>
				<circle class="st11" cx="214.76" cy="155.56" r="12.68"/>
				<g>
					
						<linearGradient id="SVGID_14_" gradientUnits="userSpaceOnUse" x1="5323.9917" y1="82.2738" x2="5323.9917" y2="149.8386" gradientTransform="matrix(-1 0 0 -1 5538.7495 407.4084)">
						<stop  offset="8.073434e-08" style="stop-color:#BC619C"/>
						<stop  offset="0.9992" style="stop-color:#FFFFFF;stop-opacity:0"/>
					</linearGradient>
					<polygon class="st20" points="214.76,301.3 214.76,301.3 226.97,301.3 222.5,262.99 214.76,262.99 214.76,262.99 
						207.02,262.99 202.54,301.3 					"/>
					
						<linearGradient id="SVGID_15_" gradientUnits="userSpaceOnUse" x1="5323.9888" y1="140.1427" x2="5323.9888" y2="186.251" gradientTransform="matrix(-1 0 0 -1 5538.7495 407.4084)">
						<stop  offset="8.073434e-08" style="stop-color:#BC619C"/>
						<stop  offset="0.9992" style="stop-color:#FFFFFF;stop-opacity:0"/>
					</linearGradient>
					<polygon class="st21" points="214.76,251.18 226.97,251.18 217.58,212.87 214.76,212.87 211.94,212.87 202.55,251.18 					"/>
					<circle class="st22" cx="214.76" cy="304.61" r="12.68"/>
					<circle class="st12" cx="214.76" cy="254.58" r="12.68"/>
				</g>
				<circle class="st8" cx="214.76" cy="205.07" r="12.68"/>
			</g>
			<g>
				<linearGradient id="SVGID_16_" gradientUnits="userSpaceOnUse" x1="269.6397" y1="110.4972" x2="245.3497" y2="159.3546">
					<stop  offset="8.073434e-08" style="stop-color:#BC619C"/>
					<stop  offset="0.9992" style="stop-color:#FFFFFF;stop-opacity:0"/>
				</linearGradient>
				<polygon class="st23" points="260.06,101.4 237.21,163.16 246.43,166.8 283.3,111.39 				"/>
				<circle class="st12" cx="272.05" cy="105.53" r="12.68"/>
				<linearGradient id="SVGID_17_" gradientUnits="userSpaceOnUse" x1="272.8086" y1="154.5006" x2="240.6266" y2="186.4724">
					<stop  offset="8.073434e-08" style="stop-color:#BC619C"/>
					<stop  offset="0.9992" style="stop-color:#FFFFFF;stop-opacity:0"/>
				</linearGradient>
				<polygon class="st24" points="261.93,147.92 234.09,185.84 240.61,191.12 277.93,166.8 				"/>
				<circle class="st10" cx="272.05" cy="155.56" r="12.68"/>
				<linearGradient id="SVGID_18_" gradientUnits="userSpaceOnUse" x1="266.6613" y1="204.6786" x2="236.968" y2="204.9996">
					<stop  offset="8.073434e-08" style="stop-color:#BC619C"/>
					<stop  offset="0.9992" style="stop-color:#FFFFFF;stop-opacity:0"/>
				</linearGradient>
				<polygon class="st25" points="268.07,193.03 234.56,202.46 234.56,207.92 266.18,216.32 				"/>
				<linearGradient id="SVGID_19_" gradientUnits="userSpaceOnUse" x1="270.0155" y1="253.3768" x2="241.1495" y2="226.2088">
					<stop  offset="8.073434e-08" style="stop-color:#BC619C"/>
					<stop  offset="0.9992" style="stop-color:#FFFFFF;stop-opacity:0"/>
				</linearGradient>
				<polygon class="st26" points="275.46,242.37 237.21,216.32 232.97,219.8 261.29,261.3 				"/>
				<linearGradient id="SVGID_20_" gradientUnits="userSpaceOnUse" x1="266.9131" y1="295.5461" x2="242.7167" y2="248.9724">
					<stop  offset="8.073434e-08" style="stop-color:#BC619C"/>
					<stop  offset="0.9992" style="stop-color:#FFFFFF;stop-opacity:0"/>
				</linearGradient>
				<polygon class="st27" points="279.98,294.72 239.88,232.03 234.09,237.33 259.76,307.76 				"/>
				<circle class="st22" cx="272.05" cy="205.07" r="12.68"/>
				<circle class="st9" cx="272.05" cy="254.58" r="12.68"/>
				<circle class="st11" cx="272.05" cy="304.61" r="12.68"/>
			</g>
			<g>
				
					<linearGradient id="SVGID_21_" gradientUnits="userSpaceOnUse" x1="5114.1987" y1="110.4972" x2="5089.9087" y2="159.3546" gradientTransform="matrix(-1 0 0 1 5274.0776 0)">
					<stop  offset="8.073434e-08" style="stop-color:#BC619C"/>
					<stop  offset="0.9992" style="stop-color:#FFFFFF;stop-opacity:0"/>
				</linearGradient>
				<polygon class="st28" points="169.46,101.4 192.31,163.16 183.09,166.8 146.22,111.39 				"/>
				<circle class="st22" cx="157.47" cy="105.53" r="12.68"/>
				
					<linearGradient id="SVGID_22_" gradientUnits="userSpaceOnUse" x1="5117.377" y1="154.4909" x2="5085.186" y2="186.4712" gradientTransform="matrix(-1 0 0 1 5274.0776 0)">
					<stop  offset="8.073434e-08" style="stop-color:#BC619C"/>
					<stop  offset="0.9992" style="stop-color:#FFFFFF;stop-opacity:0"/>
				</linearGradient>
				<polygon class="st29" points="167.58,147.91 195.43,185.84 188.91,191.12 151.59,166.8 				"/>
				<circle class="st12" cx="157.47" cy="155.56" r="12.68"/>
				
					<linearGradient id="SVGID_23_" gradientUnits="userSpaceOnUse" x1="5112.4004" y1="205.0798" x2="5081.5229" y2="205.4136" gradientTransform="matrix(-1 0 0 1 5274.0776 0)">
					<stop  offset="8.073434e-08" style="stop-color:#BC619C"/>
					<stop  offset="0.9992" style="stop-color:#FFFFFF;stop-opacity:0"/>
				</linearGradient>
				<polygon class="st30" points="159.95,192.61 194.96,202.46 194.96,207.92 159.95,217.51 				"/>
				
					<linearGradient id="SVGID_24_" gradientUnits="userSpaceOnUse" x1="5115.7891" y1="253.7957" x2="5086.2466" y2="225.9911" gradientTransform="matrix(-1 0 0 1 5274.0776 0)">
					<stop  offset="8.073434e-08" style="stop-color:#BC619C"/>
					<stop  offset="0.9992" style="stop-color:#FFFFFF;stop-opacity:0"/>
				</linearGradient>
				<polygon class="st31" points="150.41,244.04 192.31,216.32 196.55,219.8 167.64,262.16 				"/>
				
					<linearGradient id="SVGID_25_" gradientUnits="userSpaceOnUse" x1="5112.8374" y1="297.3277" x2="5087.8638" y2="249.2583" gradientTransform="matrix(-1 0 0 1 5274.0776 0)">
					<stop  offset="8.073434e-08" style="stop-color:#BC619C"/>
					<stop  offset="0.9992" style="stop-color:#FFFFFF;stop-opacity:0"/>
				</linearGradient>
				<polygon class="st32" points="146.41,298.4 189.64,232.03 195.43,237.33 169.11,309.66 				"/>
				<circle class="st9" cx="157.47" cy="205.07" r="12.68"/>
				<circle class="st10" cx="157.47" cy="254.58" r="12.68"/>
				<circle class="st8" cx="157.47" cy="304.61" r="12.68"/>
			</g>
		</g>
	</g>
</g>
</svg>
