<svg width="32" height="32" viewBox="0 0 32 32" fill="none" xmlns="http://www.w3.org/2000/svg">
<g clip-path="url(#clip0_67_4196)">
<path d="M23.3261 10.7683L16.0005 10.6554L15.1309 15.2736L16.0004 19.8919L25.5656 30.2704C30.7062 30.2703 36.0002 29.4054 36.0002 29.4054L23.3261 10.7683Z" fill="#8D8EA5"/>
<path d="M16.0004 10.6554L19.7213 14.3481L23.326 10.7683L16.0004 0L15.1309 5.32765L16.0004 10.6554Z" fill="white"/>
<path d="M8.67412 10.7683L15.9997 10.6554V19.892L6.43458 30.2704L-4 29.4054L8.67412 10.7683Z" fill="#D0D1E4"/>
<path d="M16.0004 10.6554L12.2795 14.3481L8.6748 10.7683L16.0004 0V10.6554Z" fill="#E2E2E2"/>
<path d="M25.5655 29.4054L16.0004 30.2702L15.1309 24.6486L16.0004 19.8918C21.283 19.8918 25.5655 24.1513 25.5655 29.4054Z" fill="#2F3163"/>
<path d="M15.9997 19.8918V30.2702L6.43457 29.4054C6.43457 24.1513 10.7171 19.8918 15.9997 19.8918Z" fill="#5A5C8B"/>
<path d="M16.0004 29.4054L15.1309 30.7027L16.0004 32H36.0002V29.4054H16.0004Z" fill="#3C261B"/>
<path d="M15.9998 29.4054H-4V32H15.9998V29.4054Z" fill="#5E4335"/>
</g>
<defs>
<clipPath id="clip0_67_4196">
<rect width="32" height="32" fill="white"/>
</clipPath>
</defs>
</svg>
