<svg width="14" height="14" viewBox="0 0 14 14" fill="none" xmlns="http://www.w3.org/2000/svg">
<path d="M5.3998 1.39998C5.18763 1.39998 4.98415 1.48426 4.83412 1.63429C4.68409 1.78432 4.5998 1.9878 4.5998 2.19998V2.59998C4.5998 2.70606 4.55766 2.8078 4.48265 2.88282C4.40763 2.95783 4.30589 2.99998 4.1998 2.99998C4.09372 2.99998 3.99198 2.95783 3.91696 2.88282C3.84195 2.8078 3.7998 2.70606 3.7998 2.59998V2.19998C3.7998 1.77563 3.96838 1.36866 4.26843 1.0686C4.56849 0.768546 4.97546 0.599976 5.3998 0.599976H5.7998C5.90589 0.599976 6.00763 0.642118 6.08265 0.717133C6.15766 0.792147 6.1998 0.893889 6.1998 0.999976C6.1998 1.10606 6.15766 1.2078 6.08265 1.28282C6.00763 1.35783 5.90589 1.39998 5.7998 1.39998H5.3998Z" fill="white"/>
<path d="M4.5998 8.59993C4.5998 8.8121 4.68409 9.01558 4.83412 9.16561C4.98415 9.31564 5.18763 9.39993 5.3998 9.39993H5.7998C5.90589 9.39993 6.00763 9.44207 6.08265 9.51708C6.15766 9.5921 6.1998 9.69384 6.1998 9.79993C6.1998 9.90601 6.15766 10.0078 6.08265 10.0828C6.00763 10.1578 5.90589 10.1999 5.7998 10.1999H5.3998C4.97546 10.1999 4.56849 10.0314 4.26843 9.7313C3.96838 9.43124 3.7998 9.02427 3.7998 8.59993V8.19993C3.7998 8.09384 3.84195 7.9921 3.91696 7.91708C3.99198 7.84207 4.09372 7.79993 4.1998 7.79993C4.30589 7.79993 4.40763 7.84207 4.48265 7.91708C4.55766 7.9921 4.5998 8.09384 4.5998 8.19993V8.59993Z" fill="white"/>
<path d="M4.5998 4.20005C4.5998 4.09396 4.55766 3.99222 4.48265 3.91721C4.40763 3.84219 4.30589 3.80005 4.1998 3.80005C4.09372 3.80005 3.99198 3.84219 3.91696 3.91721C3.84195 3.99222 3.7998 4.09396 3.7998 4.20005V6.60005C3.7998 6.70614 3.84195 6.80788 3.91696 6.88289C3.99198 6.95791 4.09372 7.00005 4.1998 7.00005C4.30589 7.00005 4.40763 6.95791 4.48265 6.88289C4.55766 6.80788 4.5998 6.70614 4.5998 6.60005V4.20005Z" fill="white"/>
<path d="M11.8 1.39998C12.0122 1.39998 12.2157 1.48426 12.3657 1.63429C12.5157 1.78432 12.6 1.9878 12.6 2.19998V2.59998C12.6 2.70606 12.6421 2.8078 12.7172 2.88282C12.7922 2.95783 12.8939 2.99998 13 2.99998C13.1061 2.99998 13.2078 2.95783 13.2828 2.88282C13.3579 2.8078 13.4 2.70606 13.4 2.59998V2.19998C13.4 1.77563 13.2314 1.36866 12.9314 1.0686C12.6313 0.768546 12.2243 0.599976 11.8 0.599976H11.4C11.2939 0.599976 11.1922 0.642118 11.1172 0.717133C11.0421 0.792147 11 0.893889 11 0.999976C11 1.10606 11.0421 1.2078 11.1172 1.28282C11.1922 1.35783 11.2939 1.39998 11.4 1.39998H11.8Z" fill="white"/>
<path d="M11.8 9.39993C12.0122 9.39993 12.2157 9.31564 12.3657 9.16561C12.5157 9.01558 12.6 8.8121 12.6 8.59993V8.19993C12.6 8.09384 12.6421 7.9921 12.7172 7.91708C12.7922 7.84207 12.8939 7.79993 13 7.79993C13.1061 7.79993 13.2078 7.84207 13.2828 7.91708C13.3579 7.9921 13.4 8.09384 13.4 8.19993V8.59993C13.4 9.02427 13.2314 9.43124 12.9314 9.7313C12.6313 10.0314 12.2243 10.1999 11.8 10.1999H11.4C11.2939 10.1999 11.1922 10.1578 11.1172 10.0828C11.0421 10.0078 11 9.90601 11 9.79993C11 9.69384 11.0421 9.5921 11.1172 9.51708C11.1922 9.44207 11.2939 9.39993 11.4 9.39993H11.8Z" fill="white"/>
<path d="M12.9996 3.80005C12.8935 3.80005 12.7918 3.84219 12.7168 3.91721C12.6418 3.99222 12.5996 4.09396 12.5996 4.20005V6.60005C12.5996 6.70614 12.6418 6.80788 12.7168 6.88289C12.7918 6.95791 12.8935 7.00005 12.9996 7.00005C13.1057 7.00005 13.2074 6.95791 13.2825 6.88289C13.3575 6.80788 13.3996 6.70614 13.3996 6.60005V4.20005C13.3996 4.09396 13.3575 3.99222 13.2825 3.91721C13.2074 3.84219 13.1057 3.80005 12.9996 3.80005Z" fill="white"/>
<path d="M7.4 0.599976C7.29391 0.599976 7.19217 0.642118 7.11716 0.717133C7.04214 0.792148 7 0.893889 7 0.999976C7 1.10606 7.04214 1.2078 7.11716 1.28282C7.19217 1.35783 7.29391 1.39998 7.4 1.39998H9.8C9.90609 1.39998 10.0078 1.35783 10.0828 1.28282C10.1579 1.2078 10.2 1.10606 10.2 0.999976C10.2 0.893889 10.1579 0.792148 10.0828 0.717133C10.0078 0.642118 9.90609 0.599976 9.8 0.599976H7.4Z" fill="white"/>
<path d="M7 9.80003C7 9.69394 7.04214 9.5922 7.11716 9.51718C7.19217 9.44217 7.29391 9.40002 7.4 9.40002H9.8C9.90609 9.40002 10.0078 9.44217 10.0828 9.51718C10.1579 9.5922 10.2 9.69394 10.2 9.80003C10.2 9.90611 10.1579 10.0079 10.0828 10.0829C10.0078 10.1579 9.90609 10.2 9.8 10.2H7.4C7.29391 10.2 7.19217 10.1579 7.11716 10.0829C7.04214 10.0079 7 9.90611 7 9.80003Z" fill="white"/>
<path d="M2.19961 3.80005H2.99961V4.60005H2.19961C1.98744 4.60005 1.78395 4.68433 1.63392 4.83436C1.48389 4.98439 1.39961 5.18788 1.39961 5.40005V10.6C1.39961 11.1305 1.61032 11.6392 1.9854 12.0143C2.36047 12.3893 2.86918 12.6 3.39961 12.6H8.59961C8.81178 12.6 9.01527 12.5158 9.16529 12.3657C9.31532 12.2157 9.39961 12.0122 9.39961 11.8V11H10.1996V11.8C10.1996 12.2244 10.031 12.6314 9.73098 12.9314C9.43092 13.2315 9.02396 13.4 8.59961 13.4H3.39961C2.657 13.4 1.94481 13.1051 1.41971 12.5799C0.894608 12.0548 0.599609 11.3427 0.599609 10.6V5.40005C0.599609 4.9757 0.76818 4.56874 1.06824 4.26868C1.3683 3.96862 1.77526 3.80005 2.19961 3.80005Z" fill="white"/>
</svg>
