<svg width="12" height="12" viewBox="0 0 12 12" fill="none" xmlns="http://www.w3.org/2000/svg">
<path d="M10.2722 4.52313C10.2722 4.52313 9.95547 8.45188 9.77172 10.1068C9.68422 10.8972 9.19597 11.3604 8.39622 11.375C6.87431 11.4024 5.35064 11.4041 3.82931 11.372C3.05989 11.3563 2.57981 10.8873 2.49406 10.1109C2.30914 8.44138 1.99414 4.52313 1.99414 4.52313" stroke="#695C78" stroke-width="0.5" stroke-linecap="round" stroke-linejoin="round"/>
<path d="M11.0797 2.63984H1.1875" stroke="#695C78" stroke-width="0.5" stroke-linecap="round" stroke-linejoin="round"/>
<path d="M9.17383 2.63983C8.71592 2.63983 8.32158 2.31608 8.23175 1.8675L8.09 1.15817C8.0025 0.830917 7.70617 0.604584 7.36842 0.604584H4.89917C4.56142 0.604584 4.26508 0.830917 4.17758 1.15817L4.03583 1.8675C3.946 2.31608 3.55167 2.63983 3.09375 2.63983" stroke="#695C78" stroke-width="0.5" stroke-linecap="round" stroke-linejoin="round"/>
</svg>
