<svg width="32" height="32" viewBox="0 0 32 32" fill="none" xmlns="http://www.w3.org/2000/svg">
<path fill-rule="evenodd" clip-rule="evenodd" d="M30.3105 14.0364C29.3333 10.9188 28.7052 9.47526 28.4177 8.89213L28.4176 8.89194C28.1865 8.41457 27.6007 7.38736 27.5774 7.34654C27.4954 7.24612 25.4613 4.80534 20.5587 3L19.9109 4.76854C22.229 5.62216 23.8156 6.60791 24.7985 7.34905C22.0837 6.53732 18.8555 6.04055 15.9965 6.04055C13.1339 6.04055 9.90194 6.53877 7.18511 7.35226C8.09506 6.6753 9.74974 5.62743 12.0821 4.76854L11.4342 3C6.53171 4.80534 4.49753 7.24612 4.41548 7.34654C4.41548 7.34654 3.93225 8.12869 3.52626 8.98753C3.50546 9.03152 3.48184 9.08033 3.45541 9.13493L3.4554 9.13497C3.17263 9.7193 2.56911 10.9664 1.67629 14.0567C0.451845 18.296 0.0169739 24.2879 0 24.5277C0.216151 25.0018 2.72153 29 9.46338 29L11.3108 26.3177C12.8356 26.7143 14.4087 26.9149 15.9966 26.9149C17.5879 26.9149 19.1641 26.7134 20.6918 26.3152L22.5278 29C29.4037 29 31.6482 25.1379 32 24.5169C31.9728 24.2314 31.2919 17.1674 30.3105 14.0364ZM28.511 25.456C27.0809 26.4709 25.4006 27.0248 23.5107 27.1056L22.5629 25.7196C23.8701 25.2257 25.1243 24.5829 26.3029 23.7963L25.2617 22.2279C23.9471 23.1054 22.5278 23.7843 21.0422 24.2543V24.2562C21.0422 24.2562 18.5821 25.0308 15.9966 25.0308C13.4112 25.0308 10.958 24.2584 10.958 24.2584V24.2565C9.46989 23.7863 8.04821 23.1067 6.73157 22.2279L5.69034 23.7963C6.871 24.5842 8.12757 25.2279 9.43732 25.7221L8.48446 27.1056C6.59372 27.0252 4.9128 26.4712 3.48216 25.4559C2.68458 24.8898 2.17072 24.316 1.92375 24.0071C2.03274 22.7166 2.4787 18.0517 3.48141 14.5809C4.23396 11.9761 4.75345 10.7572 5.03706 10.1687C5.03706 10.1687 12.3095 7.92458 15.9966 7.92458C19.6808 7.92458 24.1759 8.84233 26.9316 10.157C27.2296 10.8376 27.76 12.183 28.518 14.6012C29.3176 17.1525 29.9141 22.574 30.0628 24.0152C29.8122 24.3274 29.3007 24.8955 28.511 25.456ZM9.77344 15.8452H11.6525V18.9854H9.77344V15.8452ZM22.2199 15.8452H20.3408V18.9854H22.2199V15.8452Z" fill="url(#paint0_linear_1846:268171)"/>
<defs>
<linearGradient id="paint0_linear_1846:268171" x1="-0.00557166" y1="28.9359" x2="33.1388" y2="17.6462" gradientUnits="userSpaceOnUse">
<stop stop-color="#2771E9"/>
<stop offset="0.302083" stop-color="#792EE7"/>
<stop offset="0.640221" stop-color="#A82ACC"/>
<stop offset="1" stop-color="#D5504B"/>
</linearGradient>
</defs>
</svg>
