<svg width="22" height="22" viewBox="0 0 22 22" fill="none" xmlns="http://www.w3.org/2000/svg">
<path d="M18.8155 2.50427H3.18356C2.80762 2.50427 2.50391 2.80799 2.50391 3.18392V18.8159C2.50391 19.1918 2.80762 19.4955 3.18356 19.4955H18.8155C19.1914 19.4955 19.4951 19.1918 19.4951 18.8159V3.18392C19.4951 2.80799 19.1914 2.50427 18.8155 2.50427ZM16.853 7.46359H15.4958C14.4318 7.46359 14.2257 7.96908 14.2257 8.71245V10.35H16.7659L16.4346 12.9135H14.2257V19.4955H11.5772V12.9157H9.362V10.35H11.5772V8.4597C11.5772 6.26571 12.9174 5.06995 14.8757 5.06995C15.8144 5.06995 16.6194 5.14004 16.8551 5.1719V7.46359H16.853Z" fill="#A39DBF"/>
</svg>
