<svg width="20" height="20" viewBox="0 0 20 20" fill="none" xmlns="http://www.w3.org/2000/svg">
<path d="M8.11693 15.9866H0.882812" stroke="#030935" stroke-width="1.5" stroke-linecap="round" stroke-linejoin="round"/>
<path fill-rule="evenodd" clip-rule="evenodd" d="M19.1184 15.9866C19.1184 17.5772 17.829 18.8666 16.2384 18.8666C14.6478 18.8666 13.3584 17.5772 13.3584 15.9866C13.3584 14.3948 14.6478 13.1066 16.2384 13.1066C17.829 13.1066 19.1184 14.3948 19.1184 15.9866Z" stroke="#030935" stroke-width="1.5" stroke-linecap="round" stroke-linejoin="round"/>
<path d="M11.8828 4.26206H19.1181" stroke="#030935" stroke-width="1.5" stroke-linecap="round" stroke-linejoin="round"/>
<path fill-rule="evenodd" clip-rule="evenodd" d="M0.882812 4.26208C0.882812 5.85384 2.17222 7.14208 3.76281 7.14208C5.3534 7.14208 6.64281 5.85384 6.64281 4.26208C6.64281 2.67149 5.3534 1.38208 3.76281 1.38208C2.17222 1.38208 0.882812 2.67149 0.882812 4.26208Z" stroke="#030935" stroke-width="1.5" stroke-linecap="round" stroke-linejoin="round"/>
</svg>
