<svg width="32" height="32" viewBox="0 0 32 32" fill="none" xmlns="http://www.w3.org/2000/svg">
<path fill-rule="evenodd" clip-rule="evenodd" d="M14.3963 23.2143C14.9123 23.2143 15.332 23.6341 15.332 24.1498C15.332 24.6656 14.9123 25.0853 14.3963 25.0853C13.8806 25.0853 13.4608 24.6656 13.4608 24.1498C13.4608 23.6341 13.8806 23.2143 14.3963 23.2143ZM29.0896 17.4193C28.5737 17.4193 28.1539 16.9995 28.1539 16.4838C28.1539 15.9678 28.5737 15.5481 29.0896 15.5481C29.6054 15.5481 30.0251 15.9678 30.0251 16.4838C30.0251 16.9995 29.6054 17.4193 29.0896 17.4193ZM29.0896 13.5864C27.4921 13.5864 26.1923 14.8862 26.1923 16.4838C26.1923 16.7949 26.2439 17.1047 26.3459 17.4057L16.7746 22.5006C16.2308 21.717 15.3494 21.2525 14.3963 21.2525C13.292 21.2525 12.2852 21.8842 11.7982 22.8721L3.1994 18.3388C2.29107 17.8611 1.61096 16.3649 1.68311 15.0031C1.72052 14.2928 1.96614 13.7414 2.33981 13.5285C2.57719 13.3938 2.86271 13.4056 3.16531 13.5641L3.22277 13.5944C5.50088 14.7947 12.9577 18.7223 13.2715 18.8681C13.7561 19.0922 14.0255 19.183 14.8508 18.7917L30.2647 10.7752C30.4906 10.6899 30.754 10.4735 30.754 10.1447C30.754 9.68872 30.2826 9.50897 30.2812 9.50897C29.405 9.08857 28.057 8.45767 26.7427 7.84239C23.9335 6.52698 20.7494 5.0361 19.3509 4.30389C18.1437 3.67191 17.1719 4.20457 16.9986 4.31234L16.6619 4.47893C10.3686 7.59118 1.94635 11.7624 1.46687 12.0541C0.608188 12.5765 0.0764391 13.6174 0.00759983 14.9096C-0.0999533 16.9581 0.945148 19.0935 2.4389 19.8771L11.5312 24.5663C11.7361 25.985 12.9573 27.0472 14.3963 27.0472C15.9792 27.0472 17.2696 25.7712 17.2935 24.194L27.3077 18.7668C27.8154 19.1636 28.445 19.3812 29.0896 19.3812C30.6872 19.3812 31.987 18.0814 31.987 16.4838C31.987 14.8862 30.6872 13.5864 29.0896 13.5864Z" fill="url(#paint0_linear_1846:268174)"/>
<defs>
<linearGradient id="paint0_linear_1846:268174" x1="-0.0055694" y1="26.9905" x2="32.2155" y2="14.6141" gradientUnits="userSpaceOnUse">
<stop stop-color="#2771E9"/>
<stop offset="0.302083" stop-color="#792EE7"/>
<stop offset="0.640221" stop-color="#A82ACC"/>
<stop offset="1" stop-color="#D5504B"/>
</linearGradient>
</defs>
</svg>
