<svg width="18" height="19" viewBox="0 0 18 19" fill="none" xmlns="http://www.w3.org/2000/svg">
<path d="M6.29785 8.99992C6.29769 9.53397 6.45591 10.0561 6.7525 10.5002C7.04909 10.9443 7.47073 11.2905 7.96409 11.495C8.45745 11.6995 9.00036 11.7531 9.52418 11.649C10.048 11.5449 10.5292 11.2878 10.9069 10.9102C11.2846 10.5327 11.5418 10.0516 11.646 9.52777C11.7503 9.00399 11.6969 8.46106 11.4925 7.96764C11.2882 7.47422 10.9421 7.05248 10.4981 6.75576C10.054 6.45904 9.53197 6.30066 8.99791 6.30066C8.28254 6.30257 7.597 6.58754 7.09107 7.09331C6.58515 7.59909 6.29997 8.28454 6.29785 8.99992Z" fill="#A39DBF"/>
<path d="M17.8683 7.46744V7.46945C17.8024 7.07694 17.7084 6.68969 17.587 6.31067H17.5826C17.7059 6.69154 17.8008 7.081 17.8666 7.47587C17.8006 7.08104 17.7057 6.69159 17.5826 6.31067H11.3387C12.1041 6.99372 12.5987 7.92468 12.5987 9.0047C12.6005 9.63763 12.4295 10.259 12.1041 10.8019L7.99414 17.9406C7.99434 17.9442 7.99434 17.9479 7.99414 17.9515V17.9627V17.9523C8.32776 17.9879 8.66312 18.0048 8.99863 18.0029C9.27346 18.0029 9.54547 17.9872 9.81427 17.9627C10.217 17.9263 10.6167 17.8627 11.0108 17.7723C15.0127 16.8586 17.9988 13.2778 17.9988 9.00029C17.9989 8.48656 17.9552 7.97375 17.8683 7.46744Z" fill="#A39DBF"/>
<path d="M8.99864 12.5987C7.64861 12.5987 6.52358 11.8791 5.89317 10.7991L1.76633 3.66077L1.7607 3.65112C0.870209 4.85674 0.294903 6.26565 0.0870041 7.74999C-0.120895 9.23433 0.0451955 10.7471 0.5702 12.151C1.0952 13.5548 1.9625 14.8054 3.09336 15.789C4.22423 16.7727 5.58285 17.4584 7.04592 17.7839V17.7819L10.1675 12.3737C9.79423 12.5172 9.39849 12.5934 8.99864 12.5987Z" fill="#A39DBF"/>
<path d="M2.38005 2.91828L5.48794 8.2722C5.64928 7.4596 6.08718 6.72801 6.72713 6.20189C7.36709 5.67578 8.16956 5.38764 8.99802 5.3865H17.2416C16.9583 4.76381 16.6111 4.17216 16.2058 3.62102L16.2106 3.62423C16.6144 4.17437 16.9599 4.76497 17.2416 5.3865H17.2485C16.9669 4.76311 16.6214 4.17063 16.2175 3.61861C16.2125 3.61552 16.2078 3.61203 16.2034 3.60816C15.4115 2.54953 14.3961 1.6784 13.2294 1.05676C12.0626 0.435114 10.7732 0.0782236 9.45287 0.0114759C8.13253 -0.0552718 6.8137 0.169763 5.59021 0.670573C4.36671 1.17138 3.26861 1.93566 2.37402 2.90904L2.37965 2.91868L2.38005 2.91828Z" fill="#A39DBF"/>
</svg>
