<svg width="29" height="29" viewBox="0 0 29 29" fill="none" xmlns="http://www.w3.org/2000/svg">
<path fill-rule="evenodd" clip-rule="evenodd" d="M16.3251 0.397095C15.8013 0.376956 15.2805 0.565155 14.888 0.920569C14.5755 1.20359 14.3633 1.57566 14.2807 1.98293L14.2499 2.21263L14.2429 2.41649L14.8624 11.5149C14.9396 12.6746 15.9604 13.5574 17.1483 13.4903L26.4156 12.886C26.9579 12.8468 27.455 12.6011 27.8041 12.2028C28.082 11.8856 28.2492 11.4908 28.2828 11.0757L28.2859 10.7942L28.2726 10.6326C27.3137 4.86038 22.3013 0.566137 16.3251 0.397095ZM16.3088 2.41633L16.6121 2.4307C21.33 2.71672 25.2624 6.08558 26.1739 10.6224L26.2197 10.8734L17.0202 11.4752C16.9737 11.4778 16.9258 11.4364 16.9222 11.3819L16.3088 2.41633ZM9.85235 5.75803C10.8572 5.62065 11.8459 6.1474 12.2459 7.03441C12.3681 7.2774 12.4417 7.54108 12.4628 7.81594L13.0046 15.4698C13.0119 15.5747 13.0616 15.6724 13.1427 15.7413C13.2035 15.793 13.2783 15.8253 13.3618 15.8347L13.4482 15.8364L21.2215 15.3681C21.8527 15.331 22.4716 15.5506 22.9316 15.9751C23.3916 16.3996 23.6518 16.9911 23.6484 17.6754C23.3027 22.7132 19.6024 26.9246 14.5625 28.0163C9.52272 29.1079 4.35054 26.8183 1.87066 22.408C1.20753 21.271 0.760565 20.0274 0.554202 18.7683L0.488142 18.2956C0.430793 17.9416 0.399957 17.5842 0.395508 17.2408L0.39985 16.9029C0.414192 11.6431 4.10713 7.09497 9.30387 5.86823L9.6605 5.78976L9.85235 5.75803ZM10.18 7.75613L10.0625 7.7695L9.74391 7.84147C5.60437 8.83918 2.63533 12.4029 2.47044 16.6014L2.46325 16.9432C2.45333 17.2032 2.46283 17.4635 2.49419 17.7404L2.53293 18.0235C2.67147 19.2148 3.05613 20.3661 3.67138 21.4212C5.71741 25.0597 9.97122 26.9428 14.1162 26.045C18.2612 25.1472 21.3045 21.6835 21.5864 17.606C21.5865 17.5446 21.5607 17.4859 21.515 17.4438C21.4846 17.4157 21.4471 17.3966 21.4074 17.3881L21.3468 17.3834L13.5863 17.8508C12.9314 17.8974 12.2845 17.6867 11.7888 17.2654C11.2931 16.8442 10.9894 16.247 10.9453 15.6099L10.404 7.96257C10.403 7.9499 10.3996 7.93754 10.3758 7.88841C10.3405 7.81026 10.2638 7.76056 10.18 7.75613Z" fill="url(#paint0_linear)"/>
<defs>
<linearGradient id="paint0_linear" x1="0.390652" y1="28.2174" x2="30.3366" y2="19.9297" gradientUnits="userSpaceOnUse">
<stop stop-color="#2771E9"/>
<stop offset="0.302083" stop-color="#792EE7"/>
<stop offset="0.640221" stop-color="#A82ACC"/>
<stop offset="1" stop-color="#D5504B"/>
</linearGradient>
</defs>
</svg>
