<svg width="32" height="32" viewBox="0 0 32 32" fill="none" xmlns="http://www.w3.org/2000/svg">
<path d="M0.450388 5.89606L3.91306 8.17339V22.6627L0.297055 26.2307C-0.337612 26.8587 0.109055 27.9427 0.999722 27.9427H8.82506C9.71439 27.9427 10.1637 26.8601 9.52772 26.2307L5.91172 22.6627V12.1134C9.61972 20.0014 13.2344 27.6774 13.1477 27.5027C13.5131 28.2441 14.6691 28.2641 14.9824 27.4027L14.9837 27.4001C14.9837 27.4001 14.9851 27.3987 14.9851 27.3974C15.8517 25.0067 17.7104 19.8801 17.5917 20.2054C17.6584 20.0201 20.8197 10.9974 20.8691 10.8574V23.8881L18.5477 26.2414C17.9251 26.8734 18.3744 27.9441 19.2597 27.9441H30.9997C31.8824 27.9441 32.3331 26.8787 31.7144 26.2454L29.4837 23.9614L29.3944 8.05073L31.7024 5.77339C32.3371 5.14539 31.8904 4.06139 30.9997 4.06139C30.0637 4.06139 34.3931 4.06006 21.8397 4.06673C20.5624 4.10406 20.9944 5.25206 16.5251 17.0961L11.0451 4.65739C10.8851 4.29473 10.5251 4.06006 10.1291 4.06006H0.999722C0.0103885 4.06139 -0.377612 5.35339 0.450388 5.89606ZM3.43572 25.9441L4.91172 24.4867L6.38772 25.9441H3.43572ZM22.8691 6.06139H28.5637C27.9251 6.77473 27.3891 6.98273 27.3917 7.64139L27.4864 24.3761C27.4891 25.0107 28.0077 25.2334 28.6251 25.9427H21.6517C22.3411 25.1601 22.8704 24.9454 22.8704 24.2974V6.06139H22.8691ZM9.47706 6.06139L15.5491 19.8414L13.9144 24.4374C5.67972 6.94939 5.96906 6.67473 4.33972 6.06139H9.47706Z" fill="url(#paint0_linear_1846:268173)"/>
<defs>
<linearGradient id="paint0_linear_1846:268173" x1="-0.00654851" y1="27.995" x2="32.5496" y2="15.9779" gradientUnits="userSpaceOnUse">
<stop stop-color="#2771E9"/>
<stop offset="0.302083" stop-color="#792EE7"/>
<stop offset="0.640221" stop-color="#A82ACC"/>
<stop offset="1" stop-color="#D5504B"/>
</linearGradient>
</defs>
</svg>
