<?xml version="1.0"?>
<svg xmlns="http://www.w3.org/2000/svg" xmlns:xlink="http://www.w3.org/1999/xlink" viewBox="0 0 512 512" width="25" height="25"><defs><linearGradient id="linear-gradient" x1="16" y1="272" x2="496" y2="272" gradientUnits="userSpaceOnUse"><stop offset="0" stop-color="#41dfd0"/><stop offset="1" stop-color="#ee83ef"/></linearGradient></defs><g id="gradient"><path d="M488,128H433.642L359.374,96.171A198.871,198.871,0,0,0,280.591,80H253.976a71.81,71.81,0,0,0-55.312,25.907L180.253,128H48A31.989,31.989,0,0,0,32,187.7V200a23.991,23.991,0,0,0,24,24H88.022a39.956,39.956,0,0,0,63.956,0H256v72.31a23.879,23.879,0,0,0,9.008,18.741h0L296,339.845V432a32,32,0,0,0,64,0V339.845L384.806,320H440a31.978,31.978,0,0,0,27.577-48.2,31.991,31.991,0,0,0,8.233-61.527l19.345-38.69A7.994,7.994,0,0,0,496,168V136A8,8,0,0,0,488,128Zm-88,48h16a16,16,0,0,1,0,32H400Zm-72-73.793a184.653,184.653,0,0,1,25.071,8.67L393.025,128H328ZM210.955,116.15A55.852,55.852,0,0,1,253.976,96h26.615A184.213,184.213,0,0,1,312,98.69V128H201.08ZM32,160a16,16,0,1,1,16,16A16.019,16.019,0,0,1,32,160Zm48.805,48H56a8.009,8.009,0,0,1-8-8v-8H80.805a40.154,40.154,0,0,0,0,16ZM120,224a24,24,0,1,1,24-24A24.028,24.028,0,0,1,120,224ZM159.2,208a39.968,39.968,0,0,0-7.217-32h6.1a7.986,7.986,0,0,1,7.168,4.463L179.044,208Zm49.65-43.578A7.994,7.994,0,0,0,208,168v40H196.94l-17.384-34.7A23.9,23.9,0,0,0,158.08,160H120a39.962,39.962,0,0,0-31.978,16H75.695a31.885,31.885,0,0,0,0-32H219.056ZM256,184v24H224V169.889L236.944,144h70.112l-8,16H280A24.027,24.027,0,0,0,256,184Zm88,248a16,16,0,0,1-32,0V344h32Zm40-135.69a7.959,7.959,0,0,1-3,6.247L349.193,328H306.807L275,302.557h0a7.957,7.957,0,0,1-3-6.246V288H384ZM384,272H368V232H352v40H336V232H320v40H304V232H288v40H272V184a8.009,8.009,0,0,1,8-8H384Zm1.568-112H316.944l8-16h73.025A29.851,29.851,0,0,0,385.568,160ZM451.3,299.3A15.892,15.892,0,0,1,440,304H398.74a24.057,24.057,0,0,0,1.26-7.69V272h40a15.986,15.986,0,0,1,11.3,27.3ZM480,240a16.019,16.019,0,0,1-16,16H400V224h64A16.019,16.019,0,0,1,480,240Zm0-73.889L459.056,208H443.7A31.976,31.976,0,0,0,416,160H403.614a13.923,13.923,0,0,1,6.6-4.151A29.891,29.891,0,0,0,426.647,144H480Z" style="fill:url(#linear-gradient)"/></g></svg>
