<svg width="8" height="8" viewBox="0 0 8 8" fill="none" xmlns="http://www.w3.org/2000/svg">
<circle cx="4" cy="4" r="3.5" stroke="white"/>
<path d="M4.27128 2.23999C5.12756 2.23999 5.7607 2.8759 5.7607 3.73107C5.7607 4.58624 5.12756 5.22659 4.27128 5.22659C3.97691 5.22659 3.70973 5.14035 3.48932 4.98896V6.15999H2.7207V2.32005H3.22873L3.36034 2.57667C3.60163 2.3643 3.9168 2.23999 4.27146 2.23999H4.27128ZM4.98252 3.73098C4.98252 3.28768 4.65515 2.95744 4.20863 2.95744C3.76211 2.95744 3.43378 3.28846 3.43378 3.73098C3.43378 4.17351 3.76211 4.50488 4.20863 4.50488C4.65515 4.50488 4.98252 4.17447 4.98252 3.73116V3.73098Z" fill="white"/>
</svg>
