<svg width="12" height="13" viewBox="0 0 12 13" fill="none" xmlns="http://www.w3.org/2000/svg">
<path d="M12 11.773L8.64799 8.48935C9.4535 7.54206 9.85518 6.32703 9.76947 5.09702C9.68376 3.867 9.11726 2.71671 8.18782 1.88543C7.25838 1.05415 6.03756 0.605884 4.77932 0.63389C3.52108 0.661896 2.32231 1.16401 1.43237 2.03579C0.542432 2.90757 0.0298528 4.08188 0.00126329 5.31444C-0.0273262 6.547 0.430275 7.7429 1.27887 8.65338C2.12747 9.56385 3.30173 10.1188 4.55737 10.2027C5.81301 10.2867 7.05336 9.89323 8.02038 9.10416L11.3724 12.3878L12 11.773ZM0.903585 5.43098C0.903585 4.65703 1.13787 3.90045 1.57682 3.25693C2.01576 2.61341 2.63965 2.11185 3.36959 1.81567C4.09952 1.51949 4.90273 1.442 5.67762 1.59299C6.45252 1.74398 7.16431 2.11667 7.72298 2.66394C8.28165 3.21121 8.66211 3.90847 8.81625 4.66756C8.97038 5.42664 8.89128 6.21345 8.58893 6.92849C8.28658 7.64353 7.77456 8.25469 7.11764 8.68468C6.46071 9.11466 5.68837 9.34417 4.89829 9.34417C3.83919 9.34302 2.82381 8.93037 2.07491 8.19675C1.32601 7.46314 0.90476 6.46847 0.903585 5.43098Z" fill="url(#paint0_linear)" fill-opacity="0.4"/>
<defs>
<linearGradient id="paint0_linear" x1="0" y1="0.632652" x2="2.4585" y2="13.7297" gradientUnits="userSpaceOnUse">
<stop stop-color="white"/>
<stop offset="1" stop-color="#EEEDED" stop-opacity="0.5"/>
</linearGradient>
</defs>
</svg>
