<svg width="13" height="15" viewBox="0 0 13 15" fill="none" xmlns="http://www.w3.org/2000/svg">
<path fill-rule="evenodd" clip-rule="evenodd" d="M12.249 8.58112C12.4937 8.71112 12.6825 8.91638 12.8154 9.12164C13.0741 9.54585 13.0531 10.0659 12.8014 10.5243L12.3119 11.3453C12.0532 11.7832 11.5707 12.0569 11.0743 12.0569C10.8295 12.0569 10.5568 11.9885 10.3331 11.8516C10.1513 11.7353 9.9415 11.6943 9.71774 11.6943C9.0255 11.6943 8.44514 12.2622 8.42416 12.9395C8.42416 13.7264 7.78087 14.3422 6.97675 14.3422H6.02579C5.21468 14.3422 4.57138 13.7264 4.57138 12.9395C4.5574 12.2622 3.97703 11.6943 3.28479 11.6943C3.05405 11.6943 2.84428 11.7353 2.66947 11.8516C2.44571 11.9885 2.16602 12.0569 1.92828 12.0569C1.42483 12.0569 0.942359 11.7832 0.683643 11.3453L0.201171 10.5243C-0.0575451 10.0795 -0.0715298 9.54585 0.187187 9.12164C0.299064 8.91638 0.508834 8.71112 0.746574 8.58112C0.942359 8.48533 1.06822 8.32796 1.18709 8.14322C1.53671 7.5548 1.32694 6.78164 0.732589 6.43269C0.0403476 6.04269 -0.183407 5.17375 0.215156 4.49638L0.683643 3.68901C1.0892 3.01164 1.95625 2.77217 2.65548 3.16901C3.26382 3.49743 4.05395 3.27848 4.41056 2.69691C4.52244 2.50533 4.58537 2.30006 4.57138 2.0948C4.5574 1.82796 4.63431 1.5748 4.76717 1.36954C5.02589 0.945327 5.49437 0.671643 6.00481 0.657959H6.99073C7.50817 0.657959 7.97665 0.945327 8.23537 1.36954C8.36123 1.5748 8.44514 1.82796 8.42416 2.0948C8.41018 2.30006 8.47311 2.50533 8.58499 2.69691C8.9416 3.27848 9.73173 3.49743 10.3471 3.16901C11.0393 2.77217 11.9133 3.01164 12.3119 3.68901L12.7804 4.49638C13.1859 5.17375 12.9622 6.04269 12.263 6.43269C11.6686 6.78164 11.4588 7.5548 11.8154 8.14322C11.9273 8.32796 12.0532 8.48533 12.249 8.58112ZM4.52207 7.50696C4.52207 8.58117 5.4101 9.43643 6.5079 9.43643C7.60569 9.43643 8.47274 8.58117 8.47274 7.50696C8.47274 6.43275 7.60569 5.57064 6.5079 5.57064C5.4101 5.57064 4.52207 6.43275 4.52207 7.50696Z" fill="#040426"/>
</svg>
