<svg width="20" height="18" viewBox="0 0 20 18" fill="none" xmlns="http://www.w3.org/2000/svg">
<path fill-rule="evenodd" clip-rule="evenodd" d="M6.44378 12.0315L6.44699 12.0314H17.0703C17.3318 12.0314 17.5618 11.8519 17.6337 11.5918L19.9774 3.10697C20.0279 2.92404 19.9925 2.72739 19.8819 2.57556C19.7711 2.42373 19.5979 2.3344 19.4141 2.3344H5.09247L4.67361 0.384746C4.61395 0.107441 4.37622 -0.0898438 4.10156 -0.0898438H0.585937C0.262298 -0.0898438 0 0.181463 0 0.516217C0 0.85097 0.262298 1.12228 0.585937 1.12228H3.63159L5.74707 10.9692C5.12436 11.2492 4.6875 11.8914 4.6875 12.6374C4.6875 13.6399 5.47607 14.4556 6.44531 14.4556H6.73059C6.28475 14.8227 6 15.3787 6 16C6 17.1028 6.89722 18 8 18C9.10278 18 10 17.1028 10 16C10 15.3787 9.71525 14.8227 9.26941 14.4556H13.7306C13.2848 14.8227 13 15.3787 13 16C13 17.1028 13.8972 18 15 18C16.1028 18 17 17.1028 17 16C17 15.3787 16.7152 14.8227 16.2694 14.4556H17.0703C17.3939 14.4556 17.6562 14.1843 17.6562 13.8495C17.6562 13.5148 17.3939 13.2435 17.0703 13.2435H6.44531C6.12228 13.2435 5.85937 12.9715 5.85937 12.6374C5.85937 12.3038 6.12137 12.0323 6.44378 12.0315ZM8 15.3333C8.36753 15.3333 8.66667 15.6325 8.66667 16C8.66667 16.3675 8.36753 16.6667 8 16.6667C7.63247 16.6667 7.33333 16.3675 7.33333 16C7.33333 15.6325 7.63247 15.3333 8 15.3333ZM15.6667 16C15.6667 15.6325 15.3675 15.3333 15 15.3333C14.6325 15.3333 14.3333 15.6325 14.3333 16C14.3333 16.3675 14.6325 16.6667 15 16.6667C15.3675 16.6667 15.6667 16.3675 15.6667 16Z" fill="white"/>
</svg>
