<svg width="28" height="25" viewBox="0 0 28 25" fill="none" xmlns="http://www.w3.org/2000/svg">
<path fill-rule="evenodd" clip-rule="evenodd" d="M21.8079 -0.000244141H6.19186C3.1409 -0.000244141 0.667837 2.47282 0.667837 5.52378L0.666504 9.24344C0.666306 9.79587 1.11408 10.2438 1.66651 10.2438C2.80221 10.2438 3.65185 11.0475 3.65185 12.1131C3.65185 13.2129 2.76623 14.0985 1.66651 14.0985C1.11422 14.0985 0.666504 14.5462 0.666504 15.0985V18.6985C0.666504 21.7496 3.13839 24.2225 6.1892 24.2225H21.8093C24.8612 24.2225 27.3333 21.7499 27.3333 18.6985V15.0985C27.3333 14.5462 26.8856 14.0985 26.3333 14.0985C25.2324 14.0985 24.3466 13.213 24.3466 12.1131C24.3466 11.0772 25.1308 10.2326 26.1413 10.1368L26.3333 10.1278C26.8859 10.1278 27.3337 9.67963 27.3333 9.12706L27.3306 5.52304C27.3306 2.47265 24.8587 -0.000244141 21.8079 -0.000244141ZM21.808 1.99976L22.0308 2.00669C23.873 2.12164 25.3307 3.65192 25.3307 5.52378L25.333 8.25473L25.2001 8.29035C23.5484 8.77702 22.3467 10.3015 22.3467 12.1131L22.3534 12.3477C22.452 14.0547 23.6204 15.4702 25.2002 15.9359L25.333 15.9694L25.3334 18.6985C25.3334 20.6454 23.7566 22.2225 21.8093 22.2225H6.18927L5.96643 22.2156C4.12427 22.1006 2.66658 20.5704 2.66658 18.6985L2.66618 15.9694L2.79923 15.9358C4.45017 15.4489 5.65193 13.9238 5.65193 12.1131L5.64522 11.8799C5.54726 10.1851 4.38626 8.83811 2.80353 8.39734L2.66618 8.36273L2.66792 5.52414C2.66792 3.57739 4.24554 1.99976 6.19193 1.99976H21.808ZM11.9073 9.17074L9.835 9.47223L9.68758 9.50235C8.73454 9.75265 8.38483 10.9677 9.11604 11.6823L10.6166 13.1441L10.2627 15.2112L10.2459 15.354C10.182 16.3406 11.2354 17.0516 12.1414 16.5792L13.9979 15.6028L15.8536 16.5776L15.9843 16.6373C16.9041 17.0005 17.9084 16.2221 17.7353 15.2117L17.3793 13.1441L18.8817 11.6839L18.9836 11.5729C19.6092 10.8106 19.1766 9.6224 18.1671 9.47263L16.0899 9.17074L15.161 7.28973C14.6883 6.32674 13.3156 6.32674 12.8382 7.28742L11.9073 9.17074ZM13.9979 9.45341L14.529 10.5272L14.5995 10.6479C14.756 10.8775 15.0026 11.0335 15.2817 11.0741L16.4619 11.2454L15.6083 12.0784L15.515 12.1828C15.3446 12.4028 15.2723 12.686 15.3201 12.9644L15.5219 14.1441L14.4644 13.5874L14.3364 13.5311C14.0747 13.4373 13.7833 13.4561 13.5335 13.5874L12.4752 14.1428L12.6779 12.9644L12.6919 12.8252C12.7002 12.5472 12.5922 12.2757 12.3899 12.0787L11.5352 11.2454L12.7163 11.0741C13.0419 11.0267 13.3233 10.8222 13.469 10.5272L13.9979 9.45341Z" fill="url(#paint0_linear)"/>
<defs>
<linearGradient id="paint0_linear" x1="0.661861" y1="24.1629" x2="28.8685" y2="15.5689" gradientUnits="userSpaceOnUse">
<stop stop-color="#2771E9"/>
<stop offset="0.302083" stop-color="#792EE7"/>
<stop offset="0.640221" stop-color="#A82ACC"/>
<stop offset="1" stop-color="#D5504B"/>
</linearGradient>
</defs>
</svg>
