<svg width="32" height="32" viewBox="0 0 32 32" fill="none" xmlns="http://www.w3.org/2000/svg">
<path d="M0.469684 26.3674C3.46346 28.2671 6.94767 29.2709 10.5451 29.2709C15.8131 29.2709 20.6406 27.2472 24.1397 23.573C27.4878 20.0565 29.3296 15.3314 29.238 10.5362C30.5072 9.45026 32 7.37672 32 5.35572C32 4.581 31.1593 4.08922 30.4775 4.48399C29.2851 5.1846 28.1978 5.36784 27.0795 5.05391C24.7958 2.82812 21.3965 2.35924 18.532 3.90329C16.0287 5.25062 14.6369 7.71624 14.7622 10.4109C10.5329 9.89488 6.62565 7.77418 3.90134 4.4786C3.45403 3.94101 2.60521 4.00434 2.24951 4.61333C0.937209 6.86069 0.950683 9.46509 2.09187 11.5683C1.5489 11.6639 1.21341 12.1207 1.21341 12.6152C1.21341 14.7291 2.16463 16.672 3.69655 17.9978C3.41092 18.2726 3.3166 18.6809 3.43786 19.0446C4.11153 21.0683 5.63671 22.6501 7.54319 23.4423C5.46964 24.4326 3.17648 24.7627 1.13527 24.5121C0.0789574 24.3693 -0.442461 25.7894 0.469684 26.3674ZM10.8213 23.7886C11.5771 23.2079 11.1756 21.998 10.2271 21.9778C8.55639 21.9427 7.03524 21.1195 6.08807 19.8247C6.54481 19.7951 7.01773 19.725 7.46774 19.6038C8.49306 19.3262 8.44456 17.8469 7.40307 17.638C5.51276 17.2581 4.02934 15.8811 3.47289 14.108C3.98084 14.2333 4.49821 14.3034 5.01424 14.3128C6.03687 14.3182 6.42355 13.0072 5.58955 12.4589C3.71002 11.2207 2.90836 9.03394 3.43921 6.97791C6.72132 10.3031 11.1743 12.3066 15.8845 12.533C16.5595 12.5747 17.0661 11.9401 16.9179 11.2975C16.278 8.5233 17.8274 6.5791 19.4913 5.68312C21.1378 4.79388 23.7813 4.51633 25.8077 6.64242C26.4099 7.27701 28.4417 7.30127 29.4751 7.06009C29.0116 7.93317 28.2989 8.76178 27.6319 9.22795C27.3477 9.42736 27.1846 9.7588 27.2021 10.1051C27.4191 14.5311 25.7699 18.9315 22.6778 22.1772C19.5628 25.4472 15.2553 27.2486 10.5464 27.2486C8.6736 27.2486 6.83719 26.9441 5.10182 26.3566C7.17671 25.9551 9.14786 25.0766 10.8213 23.7886Z" fill="url(#paint0_linear_1846:268172)"/>
<defs>
<linearGradient id="paint0_linear_1846:268172" x1="-0.00557166" y1="29.2062" x2="33.2097" y2="18.009" gradientUnits="userSpaceOnUse">
<stop stop-color="#2771E9"/>
<stop offset="0.302083" stop-color="#792EE7"/>
<stop offset="0.640221" stop-color="#A82ACC"/>
<stop offset="1" stop-color="#D5504B"/>
</linearGradient>
</defs>
</svg>
