<svg width="16" height="16" viewBox="0 0 16 16" fill="none" xmlns="http://www.w3.org/2000/svg">
<path fill-rule="evenodd" clip-rule="evenodd" d="M8.66602 0.666626H7.33268V1.99996H8.66602V0.666626ZM7.33268 3.33329H8.66602V4.66663H7.33268V3.33329ZM3.33268 10.6666C4.80544 10.6666 5.99935 9.47272 5.99935 7.99996C5.99935 6.5272 4.80544 5.33329 3.33268 5.33329C1.85992 5.33329 0.666016 6.5272 0.666016 7.99996C0.666016 9.47272 1.85992 10.6666 3.33268 10.6666ZM12.666 10.6666C14.1388 10.6666 15.3327 9.47272 15.3327 7.99996C15.3327 6.5272 14.1388 5.33329 12.666 5.33329C11.1933 5.33329 9.99935 6.5272 9.99935 7.99996C9.99935 9.47272 11.1933 10.6666 12.666 10.6666ZM7.33268 14H8.66602V15.3333H7.33268V14ZM8.66602 11.3333H7.33268V12.6666H8.66602V11.3333ZM7.33268 8.66663H8.66602V9.99996H7.33268V8.66663ZM8.66602 5.99996H7.33268V7.33329H8.66602V5.99996Z" fill="white"/>
</svg>
