<svg width="16" height="16" viewBox="0 0 16 16" fill="none" xmlns="http://www.w3.org/2000/svg">
<path d="M14.8002 14.8634C14.3222 11.6473 13.0752 8.47806 10.1333 7.46176C11.2766 6.74969 12.0355 5.48266 12.0355 4.0351C12.0355 1.80861 10.2302 0 8.0004 0C5.77056 0 3.9653 1.80527 3.9653 4.0351C3.9653 5.47931 4.72752 6.74969 5.86751 7.46176C2.9256 8.47806 1.67528 11.6473 1.20057 14.8634C1.1103 15.4618 1.58168 16 2.18678 16H13.8073C14.4191 16 14.8905 15.4618 14.8002 14.8634ZM5.4864 4.0351C5.4864 2.64772 6.61636 1.51776 8.00374 1.51776C8.33471 1.51776 8.6055 1.78855 8.6055 2.11952C8.6055 2.45048 8.33471 2.72127 8.00374 2.72127C7.27829 2.72127 6.68991 3.30965 6.68991 4.0351C6.68991 4.36607 6.41912 4.63686 6.08816 4.63686C5.75385 4.63686 5.4864 4.36941 5.4864 4.0351Z" fill="url(#paint0_linear_67_4187)"/>
<defs>
<linearGradient id="paint0_linear_67_4187" x1="1.18708" y1="15.9606" x2="16.1049" y2="12.4456" gradientUnits="userSpaceOnUse">
<stop stop-color="#2771E9"/>
<stop offset="0.302083" stop-color="#792EE7"/>
<stop offset="0.640221" stop-color="#A82ACC"/>
<stop offset="1" stop-color="#D5504B"/>
</linearGradient>
</defs>
</svg>
