<svg width="16" height="16" viewBox="0 0 16 16" fill="none" xmlns="http://www.w3.org/2000/svg">
<circle cx="8" cy="8" r="7.5" stroke="white"/>
<path d="M8.5411 4.47998C10.2536 4.47998 11.5199 5.7518 11.5199 7.46214C11.5199 9.17248 10.2536 10.4532 8.5411 10.4532C7.95235 10.4532 7.418 10.2807 6.97718 9.97791V12.32H5.43994V4.64009H6.45599L6.71922 5.15335C7.2018 4.7286 7.83214 4.47998 8.54145 4.47998H8.5411ZM9.96357 7.46197C9.96357 6.57535 9.30884 5.91487 8.4158 5.91487C7.52276 5.91487 6.8661 6.57692 6.8661 7.46197C6.8661 8.34702 7.52276 9.00976 8.4158 9.00976C9.30884 9.00976 9.96357 8.34893 9.96357 7.46232V7.46197Z" fill="white"/>
</svg>
