<svg width="66" height="66" viewBox="0 0 66 66" fill="none" xmlns="http://www.w3.org/2000/svg">
<path fill-rule="evenodd" clip-rule="evenodd" d="M64.4672 18.9911V46.8369C64.4672 57.1553 58.0097 64.4328 47.6913 64.4328H18.1372C7.81884 64.4328 1.39551 57.1553 1.39551 46.8369V18.9911C1.39551 8.67277 7.85301 1.39868 18.1372 1.39868H47.6913C58.0097 1.39868 64.4672 8.67277 64.4672 18.9911Z" stroke="#040426" stroke-width="1.5" stroke-linecap="round" stroke-linejoin="round"/>
<path d="M10.0439 48.1432L15.268 42.6321C17.1506 40.6436 20.311 40.6334 22.2107 42.6048L25.2344 45.69C27.2742 47.7708 30.6669 47.6205 32.5154 45.3689L40.1311 36.1063C42.3178 33.4447 46.3289 33.2807 48.724 35.751L55.817 43.0695" stroke="#040426" stroke-width="1.5" stroke-linecap="round" stroke-linejoin="round"/>
<path fill-rule="evenodd" clip-rule="evenodd" d="M27.2381 23.2087C27.2381 26.516 24.5526 29.2015 21.2453 29.2015C17.9379 29.2015 15.2559 26.516 15.2559 23.2087C15.2559 19.9013 17.9379 17.2158 21.2453 17.2158C24.5526 17.2158 27.2381 19.9013 27.2381 23.2087Z" stroke="#040426" stroke-width="1.5" stroke-linecap="round" stroke-linejoin="round"/>
</svg>
